<svg display="block" pointer-events="none" style="height:100%;width:100%" focusable="false" version="1.1" viewBox="0 0 16 16" xmlns="http://www.w3.org/2000/svg">
  <g>
    <title>Lunta</title>
    <g fill="#20639b">
      <path d="m12.28 11.608-0.211-0.364h-0.932l0.281-0.502-0.211-0.365h-0.421l-0.493 0.867h-1.38l0.69-1.194 0.957-6e-3 0.211-0.364-0.211-0.365-0.535 4e-3 0.466-0.806-0.212-0.365h-0.421l-0.466 0.807-0.277-0.48h-0.422l-0.211 0.365 0.489 0.845-0.69 1.195-0.689-1.195 0.426-0.729-0.211-0.365h-0.42l-0.216 0.364-0.466-0.807h-0.422l-0.211 0.365 0.466 0.806-0.582 0.025-0.212 0.364 0.212 0.365 1.004-0.023 0.689 1.194h-1.379l-0.481-0.78h-0.422l-0.21 0.365 0.271 0.415h-0.932l-0.211 0.364 0.211 0.365h0.932l-0.241 0.436 0.209 0.365h0.423l0.452-0.801h1.379l-0.689 1.195-0.859-4e-3 -0.212 0.365 0.211 0.365 0.438 4e-3 -0.466 0.807 0.211 0.365h0.422l0.466-0.807 0.289 0.457h0.42l0.211-0.365-0.498-0.822 0.689-1.195 0.69 1.195-0.431 0.766 0.21 0.365h0.422l0.22-0.4 0.466 0.807h0.421l0.212-0.365-0.466-0.807 0.578 0.012 0.211-0.365-0.211-0.365-1-0.012-0.69-1.195h1.38l0.464 0.816h0.421l0.21-0.367-0.253-0.451h0.932z" clip-rule="evenodd" fill-rule="evenodd"/>
    </g>
  </g>
</svg>
