<svg
  xmlns="http://www.w3.org/2000/svg"
  preserveAspectRatio="xMidYMid meet"
  focusable="false"
>
  <defs>


    <symbol id="add" viewBox="0 0 512 512">
      <path fill="currentColor" d="M462.3 62.6C407.5 15.9 326 24.3 275.7 76.2L256 96.5l-19.7-20.3C186.1 24.3 104.5 15.9 49.7 62.6c-62.8 53.6-66.1 149.8-9.9 207.9l193.5 199.8c12.5 12.9 32.8 12.9 45.3 0l193.5-199.8c56.3-58.1 53-154.3-9.8-207.9z"></path>
    </symbol>

    
    <symbol id="add-home" viewBox="0 0 448 512">
      <path fill="currentColor" d="M352 240v32c0 6.6-5.4 12-12 12h-88v88c0 6.6-5.4 12-12 12h-32c-6.6 0-12-5.4-12-12v-88h-88c-6.6 0-12-5.4-12-12v-32c0-6.6 5.4-12 12-12h88v-88c0-6.6 5.4-12 12-12h32c6.6 0 12 5.4 12 12v88h88c6.6 0 12 5.4 12 12zm96-160v352c0 26.5-21.5 48-48 48H48c-26.5 0-48-21.5-48-48V80c0-26.5 21.5-48 48-48h352c26.5 0 48 21.5 48 48zm-48 346V86c0-3.3-2.7-6-6-6H54c-3.3 0-6 2.7-6 6v340c0 3.3 2.7 6 6 6h340c3.3 0 6-2.7 6-6z"></path>
    </symbol>

    <symbol id="arrow-down" viewBox="0 0 256 512">
      <path d="M168 345.941V44c0-6.627-5.373-12-12-12h-56c-6.627 0-12 5.373-12 12v301.941H41.941c-21.382 0-32.09 25.851-16.971 40.971l86.059 86.059c9.373 9.373 24.569 9.373 33.941 0l86.059-86.059c15.119-15.119 4.411-40.971-16.971-40.971H168z"/>
    </symbol>

    <symbol id="arrow-up" viewBox="0 0 256 512">
      <path d="M88 166.059V468c0 6.627 5.373 12 12 12h56c6.627 0 12-5.373 12-12V166.059h46.059c21.382 0 32.09-25.851 16.971-40.971l-86.059-86.059c-9.373-9.373-24.569-9.373-33.941 0l-86.059 86.059c-15.119 15.119-4.411 40.971 16.971 40.971H88z"/>
    </symbol>

    <symbol viewBox="0 0 24 24" id="calendar">
      <path d="M0 0h24v24H0V0z" fill="none" />
      <path d="M5 8h14V6H5z" opacity=".3" />
      <path
        d="M19 4h-1V2h-2v2H8V2H6v2H5c-1.11 0-1.99.9-1.99 2L3 20c0 1.1.89 2 2 2h14c1.1 0 2-.9 2-2V6c0-1.1-.9-2-2-2zm0 16H5V10h14v10zm0-12H5V6h14v2zm-7 5h5v5h-5z"
      />
    </symbol>

    <symbol id="caret-down" viewBox="0 0 448 512">
      <path fill="currentColor" d="M207.029 381.476L12.686 187.132c-9.373-9.373-9.373-24.569 0-33.941l22.667-22.667c9.357-9.357 24.522-9.375 33.901-.04L224 284.505l154.745-154.021c9.379-9.335 24.544-9.317 33.901.04l22.667 22.667c9.373 9.373 9.373 24.569 0 33.941L240.971 381.476c-9.373 9.372-24.569 9.372-33.942 0z"/>
    </symbol>

    <symbol id="caret-up" viewBox="0 0 448 512">
      <path fill="currentColor" d="M240.971 130.524l194.343 194.343c9.373 9.373 9.373 24.569 0 33.941l-22.667 22.667c-9.357 9.357-24.522 9.375-33.901.04L224 227.495 69.255 381.516c-9.379 9.335-24.544 9.317-33.901-.04l-22.667-22.667c-9.373-9.373-9.373-24.569 0-33.941L207.03 130.525c9.372-9.373 24.568-9.373 33.941-.001z"/>
    </symbol>

    <symbol viewBox="0 0 352 512" id="close"> 
        <path fill="currentColor" d="M242.72 256l100.07-100.07c12.28-12.28 12.28-32.19 0-44.48l-22.24-22.24c-12.28-12.28-32.19-12.28-44.48 0L176 189.28 75.93 89.21c-12.28-12.28-32.19-12.28-44.48 0L9.21 111.45c-12.28 12.28-12.28 32.19 0 44.48L109.28 256 9.21 356.07c-12.28 12.28-12.28 32.19 0 44.48l22.24 22.24c12.28 12.28 32.2 12.28 44.48 0L176 322.72l100.07 100.07c12.28 12.28 32.2 12.28 44.48 0l22.24-22.24c12.28-12.28 12.28-32.19 0-44.48L242.72 256z"></path>
    </symbol>



    <symbol viewBox="0 0 24 24" id="cookie">
      <path d="M0 0h24v24H0V0z" fill="none" />
      <path
        d="M16.5 12c1.93 0 3.5-1.57 3.5-3.5S18.43 5 16.5 5 13 6.57 13 8.5s1.57 3.5 3.5 3.5z"
        opacity=".3"
      />
      <circle cx="15.01" cy="18" opacity=".3" r="1" />
      <circle cx="7" cy="14" opacity=".3" r="2" />
      <path
        d="M7 18c2.21 0 4-1.79 4-4s-1.79-4-4-4-4 1.79-4 4 1.79 4 4 4zm0-6c1.1 0 2 .9 2 2s-.9 2-2 2-2-.9-2-2 .9-2 2-2zm11.01 6c0-1.65-1.35-3-3-3s-3 1.35-3 3 1.35 3 3 3 3-1.35 3-3zm-4 0c0-.55.45-1 1-1s1 .45 1 1-.45 1-1 1-1-.45-1-1zm2.49-4c3.03 0 5.5-2.47 5.5-5.5S19.53 3 16.5 3 11 5.47 11 8.5s2.47 5.5 5.5 5.5zm0-9C18.43 5 20 6.57 20 8.5S18.43 12 16.5 12 13 10.43 13 8.5 14.57 5 16.5 5z"
      />
    </symbol>

    <symbol viewBox="0 0 24 24" id="copyright">
      <path d="M0 0h24v24H0V0z" fill="none" />
      <path
        d="M12 4c-4.41 0-8 3.59-8 8s3.59 8 8 8 8-3.59 8-8-3.59-8-8-8zm-1.92 9.14c.05.33.16.63.3.88s.34.46.59.62c.23.15.53.22.89.23.21-.01.41-.03.6-.1.2-.07.37-.17.52-.3.15-.13.27-.28.36-.46.09-.18.14-.37.15-.58h1.79c-.01.41-.12.79-.3 1.15-.18.36-.43.67-.74.94-.31.27-.67.48-1.08.63-.41.15-.85.23-1.32.23-.65 0-1.22-.12-1.7-.34-.48-.22-.88-.53-1.2-.91s-.56-.83-.71-1.35c-.15-.52-.23-1.06-.23-1.64v-.27c0-.58.09-1.12.24-1.64.15-.52.39-.97.71-1.36s.72-.69 1.2-.92c.48-.23 1.05-.34 1.7-.34.51 0 .97.07 1.39.23.42.16.78.38 1.08.66.3.28.53.62.7 1.01.17.39.26.82.28 1.29h-1.79c-.01-.22-.05-.44-.14-.64-.09-.2-.2-.38-.34-.53-.14-.15-.32-.27-.52-.36-.19-.08-.4-.12-.63-.13-.37.01-.67.08-.91.23-.25.16-.45.37-.59.62s-.25.54-.3.87c-.05.33-.08.66-.08 1.01v.27c0 .33.03.67.08 1z"
        opacity=".3"
      />
      <path
        d="M10.08 10.86c.05-.33.16-.62.3-.87s.34-.46.59-.62c.24-.15.54-.22.91-.23.23.01.44.05.63.13.2.09.38.21.52.36s.25.33.34.53c.09.2.13.42.14.64h1.79c-.02-.47-.11-.9-.28-1.29-.17-.39-.4-.73-.7-1.01-.3-.28-.66-.5-1.08-.66-.42-.16-.88-.23-1.39-.23-.65 0-1.22.11-1.7.34-.48.23-.88.53-1.2.92s-.56.84-.71 1.36c-.15.52-.24 1.06-.24 1.64v.27c0 .58.08 1.12.23 1.64.15.52.39.97.71 1.35s.72.69 1.2.91c.48.22 1.05.34 1.7.34.47 0 .91-.08 1.32-.23.41-.15.77-.36 1.08-.63.31-.27.56-.58.74-.94.18-.36.29-.74.3-1.15h-1.79c-.01.21-.06.4-.15.58-.09.18-.21.33-.36.46s-.32.23-.52.3c-.19.07-.39.09-.6.1-.36-.01-.66-.08-.89-.23-.25-.16-.45-.37-.59-.62s-.25-.55-.3-.88c-.05-.33-.08-.67-.08-1v-.27c0-.35.03-.68.08-1.01zM12 2C6.48 2 2 6.48 2 12s4.48 10 10 10 10-4.48 10-10S17.52 2 12 2zm0 18c-4.41 0-8-3.59-8-8s3.59-8 8-8 8 3.59 8 8-3.59 8-8 8z"
      />
    </symbol>

    <symbol id="distance" viewBox="0 0 24 24">
      <rect fill="none" height="24" width="24" />
      <polygon
        points="21,11 21,3 13,3 16.29,6.29 6.29,16.29 3,13 3,21 11,21 7.71,17.71 17.71,7.71"
      />
    </symbol>

    <symbol viewBox="0 0 24 24" id="email">
      <path d="M0 0h24v24H0V0z" fill="none" />
      <path d="M20 8l-8 5-8-5v10h16zm0-2H4l8 4.99z" opacity=".3" />
      <path
        d="M4 20h16c1.1 0 2-.9 2-2V6c0-1.1-.9-2-2-2H4c-1.1 0-2 .9-2 2v12c0 1.1.9 2 2 2zM20 6l-8 4.99L4 6h16zM4 8l8 5 8-5v10H4V8z"
      />
    </symbol>

    <symbol viewBox="0 0 24 24" id="flag"
      xmlns="http://www.w3.org/2000/svg"
    >
      <rect
        width="18"
        height="11"
        fill="#fff"
        stroke-width="1"
        stroke="#ccc"
      />
      <rect width="18" height="3" y="4" fill="#003580" />
      <rect width="3" height="11" x="5" fill="#003580" />
    </symbol>    


    <symbol id="feelsLike" viewBox="0 0 448 512">
      <path
        d="M313.6 304c-28.7 0-42.5 16-89.6 16-47.1 0-60.8-16-89.6-16C60.2 304 0 364.2 0 438.4V464c0 26.5 21.5 48 48 48h352c26.5 0 48-21.5 48-48v-25.6c0-74.2-60.2-134.4-134.4-134.4zM400 464H48v-25.6c0-47.6 38.8-86.4 86.4-86.4 14.6 0 38.3 16 89.6 16 51.7 0 74.9-16 89.6-16 47.6 0 86.4 38.8 86.4 86.4V464zM224 288c79.5 0 144-64.5 144-144S303.5 0 224 0 80 64.5 80 144s64.5 144 144 144zm0-240c52.9 0 96 43.1 96 96s-43.1 96-96 96-96-43.1-96-96 43.1-96 96-96z"
      />
    </symbol>

    <symbol viewBox="0 0 448 512" id="expand">
      <path
        d="M212.686 315.314L120 408l32.922 31.029c15.12 15.12 4.412 40.971-16.97 40.971h-112C10.697 480 0 469.255 0 456V344c0-21.382 25.803-32.09 40.922-16.971L72 360l92.686-92.686c6.248-6.248 16.379-6.248 22.627 0l25.373 25.373c6.249 6.248 6.249 16.378 0 22.627zm22.628-118.628L328 104l-32.922-31.029C279.958 57.851 290.666 32 312.048 32h112C437.303 32 448 42.745 448 56v112c0 21.382-25.803 32.09-40.922 16.971L376 152l-92.686 92.686c-6.248 6.248-16.379 6.248-22.627 0l-25.373-25.373c-6.249-6.248-6.249-16.378 0-22.627z"
      />
    </symbol>

    <symbol viewBox="0 0 24 24" id="info">
      <path d="M0 0h24v24H0V0z" fill="none" />
      <path
        d="M12 4c-4.41 0-8 3.59-8 8s3.59 8 8 8 8-3.59 8-8-3.59-8-8-8zm1 13h-2v-6h2v6zm0-8h-2V7h2v2z"
        opacity=".3"
      />
      <path
        d="M11 7h2v2h-2zm0 4h2v6h-2zm1-9C6.48 2 2 6.48 2 12s4.48 10 10 10 10-4.48 10-10S17.52 2 12 2zm0 18c-4.41 0-8-3.59-8-8s3.59-8 8-8 8 3.59 8 8-3.59 8-8 8z"
      />
    </symbol>

    <symbol viewBox="0 0 24 24" id="install">
      <path d="M19 9h-4V3H9v6H5l7 7 7-7zM5 18v2h14v-2H5z" />
    </symbol>

    <symbol viewBox="0 0 24 24" id="longTimeWeather">
      <path d="M0 0h24v24H0V0z" fill="none" />
      <path
        d="M5 5v14h14V5H5zm4 12H7v-7h2v7zm4 0h-2V7h2v10zm4 0h-2v-4h2v4z"
        opacity=".3"
      />
      <path
        d="M19 3H5c-1.1 0-2 .9-2 2v14c0 1.1.9 2 2 2h14c1.1 0 2-.9 2-2V5c0-1.1-.9-2-2-2zm0 16H5V5h14v14zM7 10h2v7H7zm4-3h2v10h-2zm4 6h2v4h-2z"
      />
    </symbol>

    <symbol viewBox="0 0 15.375 21.107" id="locate">
      <path
        fill="#ed332b"
        stroke="#fff"
        stroke-width="0"
        d="m7.6875 1c-3.6972 0-6.6875 2.9903-6.6875 6.6875 0 5.0156 6.6875 12.42 6.6875 12.42s6.6875-7.404 6.6875-12.42c0-3.6972-2.9903-6.6875-6.6875-6.6875zm0 9.0759c-1.3184 0-2.3884-1.07-2.3884-2.3884s1.07-2.3884 2.3884-2.3884 2.3884 1.07 2.3884 2.3884-1.07 2.3884-2.3884 2.3884z"
      />
    </symbol>

    <symbol id="new-window" viewBox="0 0 512 512">
      <path d="M432,320H400a16,16,0,0,0-16,16V448H64V128H208a16,16,0,0,0,16-16V80a16,16,0,0,0-16-16H48A48,48,0,0,0,0,112V464a48,48,0,0,0,48,48H400a48,48,0,0,0,48-48V336A16,16,0,0,0,432,320ZM488,0h-128c-21.37,0-32.05,25.91-17,41l35.73,35.73L135,320.37a24,24,0,0,0,0,34L157.67,377a24,24,0,0,0,34,0L435.28,133.32,471,169c15,15,41,4.5,41-17V24A24,24,0,0,0,488,0Z"></path>
    </symbol>

    <symbol
      id="pollen"
      viewBox="0 0 24 24"
    >
    <g><rect fill="none" height="20" width="20" /></g>
    <g>
      <g>
        <path
          d="M7.46,9.46C5.68,11.25,5.55,14.04,7.03,16c1.53-2.54,3.73-4.64,6.37-6c-2.26,1.91-3.95,4.44-4.88,7.32 C9.27,17.75,10.11,18,11,18c1.34,0,2.59-0.52,3.54-1.46c1.74-1.74,2.81-6.57,3.26-10.33C14.04,6.65,9.21,7.72,7.46,9.46z"
          opacity=".3"
        />
        <path
          d="M6.05,8.05c-2.73,2.73-2.73,7.17,0,9.9C7.42,19.32,9.21,20,11,20s3.58-0.68,4.95-2.05C19.43,14.47,20,4,20,4 S9.53,4.57,6.05,8.05z M14.54,16.54C13.59,17.48,12.34,18,11,18c-0.89,0-1.73-0.25-2.48-0.68c0.92-2.88,2.62-5.41,4.88-7.32 c-2.63,1.36-4.84,3.46-6.37,6c-1.48-1.96-1.35-4.75,0.44-6.54C9.21,7.72,14.04,6.65,17.8,6.2C17.35,9.96,16.28,14.79,14.54,16.54z"
        />
      </g>
    </g>
  </symbol>

    <symbol viewBox="0 0 24 24" id="uvIndex">
      <path d="M0 0h24v24H0V0z" fill="none" />
      <path
        d="M7.6 7.6c-.47 2.34.03 4.78 1.39 6.83l5.45-5.45c-1.53-1.02-3.28-1.56-5.08-1.56-.6 0-1.19.06-1.76.18zM13.12 5c-.93 0-1.82.16-2.67.46 1.91.19 3.79.89 5.44 2.07l1.39-1.39C16.03 5.4 14.61 5 13.12 5zM5 13.12c0 1.49.4 2.91 1.14 4.15l1.39-1.39c-1.18-1.65-1.88-3.52-2.07-5.44-.3.86-.46 1.76-.46 2.68z"
        opacity=".3"
      />
      <path
        d="M13.126 14.56l1.428-1.428 6.442 6.442-1.43 1.428zM13.12 3c-2.58 0-5.16.98-7.14 2.95l-.01.01c-3.95 3.95-3.95 10.36 0 14.31l14.3-14.31C18.3 3.99 15.71 3 13.12 3zM6.14 17.27C5.4 16.03 5 14.61 5 13.12c0-.93.16-1.82.46-2.67.19 1.91.89 3.79 2.07 5.44l-1.39 1.38zm2.84-2.84C7.63 12.38 7.12 9.93 7.6 7.6c.58-.12 1.16-.18 1.75-.18 1.8 0 3.55.55 5.08 1.56l-5.45 5.45zm1.47-8.97c.85-.3 1.74-.46 2.67-.46 1.49 0 2.91.4 4.15 1.14l-1.39 1.39c-1.65-1.18-3.52-1.88-5.43-2.07z"
      />
    </symbol>

    <symbol viewBox="0 0 100 60" id="iosShare">
      <polyline
        class="arrow"
        stroke-width="6"
        points="40,12 50,2 60,12"
        fill="none"
        stroke-linejoin="round"
      ></polyline>
      <line
        class="arrow-line"
        stroke-width="6"
        x1="50"
        y1="2"
        x2="50"
        y2="45"
        stroke-linejoin="round"
      ></line>
      <polyline
        class="rectangle"
        stroke-width="6"
        points="45,20 27,20 27,70 73,70 73,20 55,20"
        fill="none"
        stroke-linejoin="round"
      ></polyline>
    </symbol>

    <symbol viewBox="0 0 24 24" id="magnifier">
      <path d="M0 0h24v24H0V0z" fill="none" />
      <path
        d="M15.5 14h-.79l-.28-.27C15.41 12.59 16 11.11 16 9.5 16 5.91 13.09 3 9.5 3S3 5.91 3 9.5 5.91 16 9.5 16c1.61 0 3.09-.59 4.23-1.57l.27.28v.79l5 4.99L20.49 19l-4.99-5zm-6 0C7.01 14 5 11.99 5 9.5S7.01 5 9.5 5 14 7.01 14 9.5 11.99 14 9.5 14z"
      />
    </symbol>

    <symbol viewBox="0 0 24 24" id="refresh">
      <path d="M0 0h24v24H0z" fill="none" />
      <path
        d="M17.65 6.35C16.2 4.9 14.21 4 12 4c-4.42 0-7.99 3.58-7.99 8s3.57 8 7.99 8c3.73 0 6.84-2.55 7.73-6h-2.08c-.82 2.33-3.04 4-5.65 4-3.31 0-6-2.69-6-6s2.69-6 6-6c1.66 0 3.14.69 4.22 1.78L13 11h7V4l-2.35 2.35z"
      />
    </symbol>

    <symbol id="shrink" viewBox="0 0 24 24">
      <rect fill="none" height="24" width="24" />
      <path
        d="M22,3.41l-5.29,5.29L20,12h-8V4l3.29,3.29L20.59,2L22,3.41z M3.41,22l5.29-5.29L12,20v-8H4l3.29,3.29L2,20.59L3.41,22z"
      />
    </symbol>

    <symbol viewBox="0 0 100 100" id="thermometer">
      <path
        stroke="#000"
        stroke-width="1"
        fill="#fff"
        d="m19.27125,18.08333l0,-13.16322c0,-1.70222 -1.38385,-3.08056 -3.08423,-3.08056c-1.70406,0 -3.0824,1.37834 -3.0824,3.08056l0,13.05924c-1.93777,1.06182 -3.25354,3.12013 -3.25354,5.48483c0,3.45229 2.799,6.25037 6.25037,6.25037c3.4532,0 6.25036,-2.79808 6.25036,-6.25037c0.00092,-2.29385 -1.23848,-4.29511 -3.08056,-5.38085z"
      />
      <rect
        stroke="#000"
        stroke-width="1"
        fill="#ffcdd2"
        height="11.5625"
        width="1.4375"
        y="8.559082"
        x="15.46875"
      />
      <ellipse
        stroke="#000"
        stroke-width="1"
        fill="#ffcdd2"
        ry="3.53125"
        rx="3.53125"
        id="svg_7"
        cy="23.402832"
        cx="16.0625"
      />
    </symbol>

    <!-- small weather icons -->

    <symbol viewBox="0 0 16 16" id="snow">
      <title>Lunta</title>
      <path
        clip-rule="evenodd"
        fill-rule="evenodd"
        d="m12.28 11.608-0.211-0.364h-0.932l0.281-0.502-0.211-0.365h-0.421l-0.493 0.867h-1.38l0.69-1.194 0.957-6e-3 0.211-0.364-0.211-0.365-0.535 4e-3 0.466-0.806-0.212-0.365h-0.421l-0.466 0.807-0.277-0.48h-0.422l-0.211 0.365 0.489 0.845-0.69 1.195-0.689-1.195 0.426-0.729-0.211-0.365h-0.42l-0.216 0.364-0.466-0.807h-0.422l-0.211 0.365 0.466 0.806-0.582 0.025-0.212 0.364 0.212 0.365 1.004-0.023 0.689 1.194h-1.379l-0.481-0.78h-0.422l-0.21 0.365 0.271 0.415h-0.932l-0.211 0.364 0.211 0.365h0.932l-0.241 0.436 0.209 0.365h0.423l0.452-0.801h1.379l-0.689 1.195-0.859-4e-3 -0.212 0.365 0.211 0.365 0.438 4e-3 -0.466 0.807 0.211 0.365h0.422l0.466-0.807 0.289 0.457h0.42l0.211-0.365-0.498-0.822 0.689-1.195 0.69 1.195-0.431 0.766 0.21 0.365h0.422l0.22-0.4 0.466 0.807h0.421l0.212-0.365-0.466-0.807 0.578 0.012 0.211-0.365-0.211-0.365-1-0.012-0.69-1.195h1.38l0.464 0.816h0.421l0.21-0.367-0.253-0.451h0.932z"
      />
    </symbol>

    <symbol viewBox="0 0 16 16" id="thunder">
      <title>Ukkosta</title>
      <path
        d="m0.083954 14.931 10.671-9.721-3.485 0.444 7.364-5.62-9.195 1.942-4.87 8.789 3.159-2.41z"
        fill="#ffa800"
      />
    </symbol>

    <!--symbol viewBox="0 0 24 24" id="radar">
          <path
            d="M13.28,8.5l0.76,0.58l0.92-0.23L13,14.8V8.29L13.28,8.5z M9.03,8.86L11,14.8V8.29L10.72,8.5L9.96,9.09 L9.03,8.86z"
            opacity=".3"
          />
          <path
            d="M14.5,6.92L13,5.77V3.88V3.4c0-0.26,0.22-0.48,0.5-0.48c0.28,0,0.5,0.21,0.5,0.48V4h2V3.4C16,2.07,14.88,1,13.5,1 C12.12,1,11,2.07,11,3.4v0.48v1.89L9.5,6.92L6,6.07l5.05,15.25C11.2,21.77,11.6,22,12,22s0.8-0.23,0.95-0.69L18,6.07L14.5,6.92z M13.28,8.5l0.76,0.58l0.92-0.23L13,14.8V8.29L13.28,8.5z M9.96,9.09l0.76-0.58L11,8.29v6.51L9.03,8.86L9.96,9.09z"
          />
      </symbol-->

    <symbol viewBox="0 0 576 512" id="radar">
      <path
        d="M575.7 280.8C547.1 144.5 437.3 62.6 320 49.9V32c0-17.7-14.3-32-32-32s-32 14.3-32 32v17.9C138.3 62.6 29.5 144.5.3 280.8c-2.2 10.1 8.5 21.3 18.7 11.4 52-55 107.7-52.4 158.6 37 5.3 9.5 14.9 8.6 19.7 0 20.2-35.4 44.9-73.2 90.7-73.2 58.5 0 88.2 68.8 90.7 73.2 4.8 8.6 14.4 9.5 19.7 0 51-89.5 107.1-91.4 158.6-37 10.3 10 20.9-1.3 18.7-11.4zM256 301.7V432c0 8.8-7.2 16-16 16-7.8 0-13.2-5.3-15.1-10.7-5.9-16.7-24.1-25.4-40.8-19.5-16.7 5.9-25.4 24.2-19.5 40.8 11.2 31.9 41.6 53.3 75.4 53.3 44.1 0 80-35.9 80-80V301.6c-9.1-7.9-19.8-13.6-32-13.6-12.3.1-22.4 4.8-32 13.7z"
      />
    </symbol>

    <symbol viewBox="0 0 42 42" id="rain">
      <title>Sadetta</title>
      <path
        fill="#74ccf4"
        d="m29.66391,29.25916c0,4.95892 -4.01471,8.97363 -8.97735,8.97363c-4.9552,0 -8.97735,-4.01471 -8.97735,-8.97363s9.65762,-19.54571 9.65762,-19.47136c0.00372,0.1078 8.29708,14.51245 8.29708,19.47136z"
      />
    </symbol>

    <symbol id="share" viewBox="0 0 512 512">
      <path d="M503.691 189.836L327.687 37.851C312.281 24.546 288 35.347 288 56.015v80.053C127.371 137.907 0 170.1 0 322.326c0 61.441 39.581 122.309 83.333 154.132 13.653 9.931 33.111-2.533 28.077-18.631C66.066 312.814 132.917 274.316 288 272.085V360c0 20.7 24.3 31.453 39.687 18.164l176.004-152c11.071-9.562 11.086-26.753 0-36.328z"/></symbol>

    <symbol viewBox="0 0 16 16" id="slush">
      <title>Räntää</title>
      <path
        clip-rule="evenodd"
        fill-rule="evenodd"
        d="m14.288 12.629c0 1.334-1.081 2.414-2.415 2.414-1.333 0-2.415-1.08-2.415-2.414s2.598-5.258 2.598-5.238c0 0.029 2.232 3.904 2.232 5.238z"
      />
      <path
        d="m8.7843 11.283-0.211-0.364h-0.932l0.281-0.502-0.211-0.365h-0.421l-0.493 0.867h-1.38l0.69-1.194 0.957-6e-3 0.211-0.364-0.211-0.365-0.535 4e-3 0.466-0.806-0.212-0.365h-0.421l-0.466 0.807-0.277-0.48h-0.422l-0.211 0.365 0.489 0.845-0.69 1.195-0.689-1.195 0.426-0.729-0.211-0.365h-0.42l-0.216 0.364-0.466-0.807h-0.422l-0.211 0.365 0.466 0.806-0.582 0.025-0.212 0.364 0.212 0.365 1.004-0.023 0.689 1.194h-1.379l-0.481-0.78h-0.422l-0.21 0.365 0.271 0.415h-0.932l-0.211 0.364 0.211 0.365h0.932l-0.241 0.436 0.209 0.365h0.423l0.452-0.801h1.379l-0.689 1.195-0.859-4e-3 -0.212 0.365 0.211 0.365 0.438 4e-3 -0.466 0.807 0.211 0.365h0.422l0.466-0.807 0.289 0.457h0.42l0.211-0.365-0.498-0.822 0.689-1.195 0.69 1.195-0.431 0.766 0.21 0.365h0.422l0.22-0.4 0.466 0.807h0.421l0.212-0.365-0.466-0.807 0.578 0.012 0.211-0.365-0.211-0.365-1-0.012-0.69-1.195h1.38l0.464 0.816h0.421l0.21-0.367-0.253-0.451h0.932z"
      />
    </symbol>

    <symbol id="sunrise">
      <g>
        <polygon
          points="25.37457847595215,7.4070011377334595 27.577577590942383,11.612001061439514 31.702577590942383,9.266000390052795 31.280576705932617,13.993000626564026 36.020578384399414,14.250000596046448 33.110578536987305,18.000000596046448 36.9605770111084,20.778000473976135 32.48357582092285,22.36000120639801 34.22057914733887,26.775999665260315 29.60157585144043,25.688000321388245 28.671579360961914,30.343001008033752 25.37457847595215,26.929001450538635 22.075578689575195,30.343001008033752 21.1475772857666,25.688000321388245 16.52857780456543,26.775999665260315 18.26357650756836,22.36000120639801 13.788578033447266,20.778000473976135 17.636577606201172,18.000000596046448 14.728578567504883,14.250000596046448 19.466577529907227,13.993000626564026 19.04657745361328,9.266000390052795 23.171579360961914,11.612001061439514 "
          fill="#ffa800"
        />
        <circle
          r="6.362"
          cy="18.738"
          cx="25.37357"
          stroke-width="1.3028"
          stroke="#FFFFFF"
          fill="#ffa800"
        />
      </g>
      <ellipse
        stroke="#fff"
        ry="15.10393"
        rx="17.90605"
        cy="36.53806"
        cx="19.43741"
        fill="#3f976e"
      />
      <path
        d="m3.03391,15.93057l4.8437,-7.18066l4.8437,7.18066l-2.42185,0l0,7.2152l-4.8437,0l0,-7.2152l-2.42185,0z"
        stroke-width="0"
      />
    </symbol>

    <symbol id="sunset">
      <path
        d="m27.65561,16.49653l4.8437,7.25316l4.8437,-7.25316l-2.42185,0l0,-7.28806l-4.8437,0l0,7.28806l-2.42185,0z"
        stroke-width="0"
      />
      <g>
        <polygon
          points="13.624427795410156,12.156871795654297 15.827423095703125,16.361873626708984 19.952423095703125,14.015871047973633 19.530426025390625,18.74287223815918 24.270431518554688,18.9998722076416 21.360427856445312,22.7498722076416 25.210426330566406,25.52787208557129 20.733428955078125,27.109872817993164 22.470428466796875,31.52587127685547 17.851425170898438,30.4378719329834 16.921424865722656,35.092872619628906 13.624427795410156,31.678874969482422 10.325424194335938,35.092872619628906 9.397430419921875,30.4378719329834 4.778430938720703,31.52587127685547 6.513427734375,27.109872817993164 2.038433074951172,25.52787208557129 5.8864288330078125,22.7498722076416 2.978435516357422,18.9998722076416 7.7164306640625,18.74287223815918 7.296424865722656,14.015871047973633 11.421432495117188,16.361873626708984 "
          fill="#ffa800"
        />
        <circle
          r="6.362"
          cy="23.48787"
          cx="13.62343"
          stroke-width="1.3028"
          stroke="#FFFFFF"
          fill="#ffa800"
        />
      </g>
      <ellipse
        stroke="#fff"
        ry="15.10393"
        rx="17.90605"
        id="svg_9"
        cy="35.28807"
        cx="18.56174"
        fill="#3f976e"
      />
    </symbol>
    <symbol id="time" viewBox="0 0 24 24">
      <path
        d="M12,20A8,8 0 0,0 20,12A8,8 0 0,0 12,4A8,8 0 0,0 4,12A8,8 0 0,0 12,20M12,2A10,10 0 0,1 22,12A10,10 0 0,1 12,22C6.47,22 2,17.5 2,12A10,10 0 0,1 12,2M12.5,7V12.25L17,14.92L16.25,16.15L11,13V7H12.5Z"
      ></path>
    </symbol>

    <symbol id="wind" viewBox="0 0 512 512">
      <path
        d="M156.7 256H16c-8.8 0-16 7.2-16 16v32c0 8.8 7.2 16 16 16h142.2c15.9 0 30.8 10.9 33.4 26.6 3.3 20-12.1 37.4-31.6 37.4-14.1 0-26.1-9.2-30.4-21.9-2.1-6.3-8.6-10.1-15.2-10.1H81.6c-9.8 0-17.7 8.8-15.9 18.4 8.6 44.1 47.6 77.6 94.2 77.6 57.1 0 102.7-50.1 95.2-108.6C249 291 205.4 256 156.7 256zM16 224h336c59.7 0 106.8-54.8 93.8-116.7-7.6-36.2-36.9-65.5-73.1-73.1-55.4-11.6-105.1 24.9-114.9 75.5-1.9 9.6 6.1 18.3 15.8 18.3h32.8c6.7 0 13.1-3.8 15.2-10.1C325.9 105.2 337.9 96 352 96c19.4 0 34.9 17.4 31.6 37.4-2.6 15.7-17.4 26.6-33.4 26.6H16c-8.8 0-16 7.2-16 16v32c0 8.8 7.2 16 16 16zm384 32H243.7c19.3 16.6 33.2 38.8 39.8 64H400c26.5 0 48 21.5 48 48s-21.5 48-48 48c-17.9 0-33.3-9.9-41.6-24.4-2.9-5-8.7-7.6-14.5-7.6h-33.8c-10.9 0-19 10.8-15.3 21.1 17.8 50.6 70.5 84.8 129.4 72.3 41.2-8.7 75.1-41.6 84.7-82.7C526 321.5 470.5 256 400 256z"
      />
    </symbol>

  <symbol id="qr" viewBox="0 0 370 370">
      <path style="fill:#ffffff; stroke:none;" d="M0 0L0 370L370 370L370 0L0 0z"/>
      <path style="stroke:none;" d="M40 40L40 110L110 110L110 40L40 40M160 40L160 50L150 50L150 60L140 60L140 50L120 50L120 60L140 60L140 80L150 80L150 90L140 90L140 110L130 110L130 90L120 90L120 120L80 120L80 130L90 130L90 140L70 140L70 130L60 130L60 140L70 140L70 150L50 150L50 160L40 160L40 170L50 170L50 160L60 160L60 180L40 180L40 220L50 220L50 210L60 210L60 220L70 220L70 230L80 230L80 220L100 220L100 230L90 230L90 240L70 240L70 250L90 250L90 240L100 240L100 250L110 250L110 240L100 240L100 230L110 230L110 220L120 220L120 230L140 230L140 220L120 220L120 210L110 210L110 200L120 200L120 190L110 190L110 180L100 180L100 170L110 170L110 160L120 160L120 170L130 170L130 150L120 150L120 140L130 140L130 130L150 130L150 140L140 140L140 160L150 160L150 170L140 170L140 180L150 180L150 190L140 190L140 200L150 200L150 190L160 190L160 170L190 170L190 190L200 190L200 210L180 210L180 200L170 200L170 210L150 210L150 230L170 230L170 220L180 220L180 230L190 230L190 240L200 240L200 250L210 250L210 240L200 240L200 230L230 230L230 220L240 220L240 230L250 230L250 210L260 210L260 220L270 220L270 230L280 230L280 220L290 220L290 240L240 240L240 260L230 260L230 240L220 240L220 260L200 260L200 290L210 290L210 300L180 300L180 310L210 310L210 300L220 300L220 310L240 310L240 330L250 330L250 310L260 310L260 330L270 330L270 320L280 320L280 330L290 330L290 320L300 320L300 310L310 310L310 330L320 330L320 320L330 320L330 300L320 300L320 280L330 280L330 250L320 250L320 240L330 240L330 200L320 200L320 190L330 190L330 130L320 130L320 120L310 120L310 140L300 140L300 150L290 150L290 160L300 160L300 150L310 150L310 160L320 160L320 190L310 190L310 210L300 210L300 220L290 220L290 210L260 210L260 190L250 190L250 180L240 180L240 190L230 190L230 180L210 180L210 190L200 190L200 170L230 170L230 160L240 160L240 170L250 170L250 160L260 160L260 140L270 140L270 130L280 130L280 140L290 140L290 130L280 130L280 120L260 120L260 140L250 140L250 150L240 150L240 130L250 130L250 120L230 120L230 130L220 130L220 140L210 140L210 160L200 160L200 170L190 170L190 160L180 160L180 150L200 150L200 140L170 140L170 130L180 130L180 120L190 120L190 130L200 130L200 120L190 120L190 100L180 100L180 120L170 120L170 130L160 130L160 110L170 110L170 90L160 90L160 80L170 80L170 70L180 70L180 80L190 80L190 90L200 90L200 80L210 80L210 100L200 100L200 110L210 110L210 100L220 100L220 110L230 110L230 100L240 100L240 110L250 110L250 100L240 100L240 90L230 90L230 60L240 60L240 50L250 50L250 40L230 40L230 50L220 50L220 60L210 60L210 70L200 70L200 60L190 60L190 50L210 50L210 40L190 40L190 50L180 50L180 40L160 40M260 40L260 110L330 110L330 40L260 40z"/>
      <path style="fill:#ffffff; stroke:none;" d="M50 50L50 100L100 100L100 50L50 50M270 50L270 100L320 100L320 50L270 50z"/>
      <path style="stroke:none;" d="M60 60L60 90L90 90L90 60L60 60z"/>
      <path style="fill:#ffffff; stroke:none;" d="M180 60L180 70L190 70L190 60L180 60z"/>
      <path style="stroke:none;" d="M280 60L280 90L310 90L310 60L280 60z"/>
      <path style="fill:#ffffff; stroke:none;" d="M150 70L150 80L160 80L160 70L150 70M210 70L210 80L220 80L220 70L210 70M150 90L150 110L160 110L160 90L150 90M220 90L220 100L230 100L230 90L220 90M120 120L120 130L100 130L100 140L120 140L120 130L130 130L130 120L120 120z"/>
      <path style="stroke:none;" d="M40 130L40 140L50 140L50 130L40 130z"/>
      <path style="fill:#ffffff; stroke:none;" d="M150 140L150 160L170 160L170 140L150 140M220 140L220 150L230 150L230 140L220 140M310 140L310 150L320 150L320 140L310 140M70 150L70 160L80 160L80 150L70 150M90 150L90 160L110 160L110 150L90 150z"/>
      <path style="stroke:none;" d="M270 160L270 170L260 170L260 180L270 180L270 170L280 170L280 190L270 190L270 200L280 200L280 190L290 190L290 200L300 200L300 190L290 190L290 170L280 170L280 160L270 160z"/>
      <path style="fill:#ffffff; stroke:none;" d="M80 170L80 180L90 180L90 210L100 210L100 220L110 220L110 210L100 210L100 200L110 200L110 190L100 190L100 180L90 180L90 170L80 170z"/>
      <path style="stroke:none;" d="M300 170L300 180L310 180L310 170L300 170z"/>
      <path style="fill:#ffffff; stroke:none;" d="M60 180L60 210L70 210L70 220L80 220L80 210L70 210L70 180L60 180M220 190L220 200L210 200L210 220L220 220L220 210L230 210L230 190L220 190M240 190L240 200L250 200L250 190L240 190M310 210L310 220L300 220L300 240L290 240L290 270L300 270L300 280L290 280L290 290L280 290L280 300L270 300L270 290L220 290L220 300L260 300L260 310L280 310L280 320L290 320L290 290L310 290L310 280L320 280L320 250L310 250L310 240L320 240L320 210L310 210z"/>
      <path style="stroke:none;" d="M40 240L40 250L60 250L60 240L40 240M120 240L120 290L130 290L130 280L140 280L140 300L130 300L130 310L160 310L160 330L210 330L210 320L170 320L170 290L160 290L160 300L150 300L150 280L140 280L140 270L180 270L180 260L190 260L190 250L180 250L180 240L160 240L160 250L130 250L130 240L120 240z"/>
      <path style="fill:#ffffff; stroke:none;" d="M160 250L160 260L170 260L170 250L160 250M250 250L250 280L280 280L280 250L250 250z"/>
      <path style="stroke:none;" d="M300 250L300 260L310 260L310 250L300 250M40 260L40 330L110 330L110 260L40 260M260 260L260 270L270 270L270 260L260 260z"/>
      <path style="fill:#ffffff; stroke:none;" d="M50 270L50 320L100 320L100 270L50 270M210 270L210 280L230 280L230 270L210 270z"/>
      <path style="stroke:none;" d="M60 280L60 310L90 310L90 280L60 280M180 280L180 290L190 290L190 280L180 280M220 320L220 330L230 330L230 320L220 320z"/>
  </symbol>


  <symbol id="windsock" viewBox="0 0 32 32">

        <path d="m7 20-5-6.6179 5-6.6179v13.236l21.475-4.223v-4.7268l-21.475-4.2861" fill="none" stroke="#000" stroke-linejoin="round" stroke-width="1.7257"/>
    <path d="m23.142 10.293v6.4295" fill="none" stroke="#000" stroke-width="1.7257"/>
    <path d="m17.665 9.5374v7.9415" fill="none" stroke="#000" stroke-width="1.7257"/>
    <path d="m12.476 8.1508v10.589" fill="none" stroke="#000" stroke-width="1.7257"/>
    <path d="m7.7523 13.394v-5.446l0.86952 0.17294c0.47824 0.095113 1.4216 0.28199 2.0964 0.41527l1.2269 0.24233v4.6197c0 3.6536-0.01245 4.6197-0.05956 4.6199-0.08025 3.15e-4 -3.8902 0.74678-4.026 0.78881l-0.1072 0.03318z" fill="#333" stroke-linejoin="round" stroke-width=".082222"/>
    <path d="m18.187 13.397c0-3.1824 0.0048-3.3744 0.08338-3.3512 0.09666 0.02856 4.2209 0.84643 4.2683 0.84643 0.01741 0 0.03166 1.1287 0.03166 2.5082v2.5082l-2.0606 0.40006c-1.1334 0.22003-2.1196 0.41447-2.1917 0.43207l-0.13102 0.032z" fill="#333" stroke-linejoin="round" stroke-width=".082222"/>
    <path d="m12.993 13.383c0-2.4106 0.01013-4.3828 0.02252-4.3828 0.03081 0 3.7744 0.74518 3.9678 0.78979l0.15485 0.035737v7.1523l-2.0368 0.39617c-1.1203 0.21789-2.0529 0.39517-2.0726 0.39395-0.01965-0.0012-0.03573-1.9745-0.03573-4.3851z" fill="#f2f2f2" stroke-linejoin="round" stroke-width=".082222"/>
    <path d="m23.713 13.413v-2.2853l0.16324 0.03506c0.08978 0.01928 0.99027 0.19929 2.0011 0.40002l1.8379 0.36496-1.8e-5 1.4843-1.7e-5 1.4843-1.8939 0.36861c-1.0416 0.20273-1.9421 0.38317-2.0011 0.40098l-0.1072 0.03238z" fill="#f2f2f2" stroke-linejoin="round" stroke-width=".082222"/>
    <path d="m4.6432 15.448-1.5601-2.0657 3.1446-4.1607v4.146c0 2.2803-0.00548 4.146-0.012182 4.146-0.0067 0-0.71423-0.92954-1.5723-2.0657z" fill="#f2f2f2" stroke-linejoin="round" stroke-width=".082222"/>
    <path d="m4.6432 15.448-1.5601-2.0657 3.1446-4.1607v4.146c0 2.2803-0.00548 4.146-0.012182 4.146-0.0067 0-0.71423-0.92954-1.5723-2.0657z" fill="none" stroke-linejoin="round" stroke-width=".082222"/>
</symbol>

 </defs>
</svg>
