<svg 
  xmlns="http://www.w3.org/2000/svg"
  preserveAspectRatio="xMidYMid meet"
  focusable="false">
    <defs>

      <symbol viewBox="0 0 24 24" id="calendar">
        <path d="M0 0h24v24H0V0z" fill="none" />
        <path d="M5 8h14V6H5z" opacity=".3" />
        <path
            d="M19 4h-1V2h-2v2H8V2H6v2H5c-1.11 0-1.99.9-1.99 2L3 20c0 1.1.89 2 2 2h14c1.1 0 2-.9 2-2V6c0-1.1-.9-2-2-2zm0 16H5V10h14v10zm0-12H5V6h14v2zm-7 5h5v5h-5z"
        />
      </symbol>

      <symbol viewBox="0 0 24 24" id="close">
        <path d="M0 0h24v24H0V0z" fill="none"/><path d="M19 6.41L17.59 5 12 10.59 6.41 5 5 6.41 10.59 12 5 17.59 6.41 19 12 13.41 17.59 19 19 17.59 13.41 12 19 6.41z"/>  
      </symbol>

      <symbol viewBox="0 0 24 24" id="cookie">
        <path d="M0 0h24v24H0V0z" fill="none" />
        <path
            d="M16.5 12c1.93 0 3.5-1.57 3.5-3.5S18.43 5 16.5 5 13 6.57 13 8.5s1.57 3.5 3.5 3.5z"
            opacity=".3"
        />
        <circle cx="15.01" cy="18" opacity=".3" r="1" />
        <circle cx="7" cy="14" opacity=".3" r="2" />
        <path
            d="M7 18c2.21 0 4-1.79 4-4s-1.79-4-4-4-4 1.79-4 4 1.79 4 4 4zm0-6c1.1 0 2 .9 2 2s-.9 2-2 2-2-.9-2-2 .9-2 2-2zm11.01 6c0-1.65-1.35-3-3-3s-3 1.35-3 3 1.35 3 3 3 3-1.35 3-3zm-4 0c0-.55.45-1 1-1s1 .45 1 1-.45 1-1 1-1-.45-1-1zm2.49-4c3.03 0 5.5-2.47 5.5-5.5S19.53 3 16.5 3 11 5.47 11 8.5s2.47 5.5 5.5 5.5zm0-9C18.43 5 20 6.57 20 8.5S18.43 12 16.5 12 13 10.43 13 8.5 14.57 5 16.5 5z"
        />
      </symbol>

      <symbol viewBox="0 0 24 24" id="copyright">
        <path d="M0 0h24v24H0V0z" fill="none" />
        <path
            d="M12 4c-4.41 0-8 3.59-8 8s3.59 8 8 8 8-3.59 8-8-3.59-8-8-8zm-1.92 9.14c.05.33.16.63.3.88s.34.46.59.62c.23.15.53.22.89.23.21-.01.41-.03.6-.1.2-.07.37-.17.52-.3.15-.13.27-.28.36-.46.09-.18.14-.37.15-.58h1.79c-.01.41-.12.79-.3 1.15-.18.36-.43.67-.74.94-.31.27-.67.48-1.08.63-.41.15-.85.23-1.32.23-.65 0-1.22-.12-1.7-.34-.48-.22-.88-.53-1.2-.91s-.56-.83-.71-1.35c-.15-.52-.23-1.06-.23-1.64v-.27c0-.58.09-1.12.24-1.64.15-.52.39-.97.71-1.36s.72-.69 1.2-.92c.48-.23 1.05-.34 1.7-.34.51 0 .97.07 1.39.23.42.16.78.38 1.08.66.3.28.53.62.7 1.01.17.39.26.82.28 1.29h-1.79c-.01-.22-.05-.44-.14-.64-.09-.2-.2-.38-.34-.53-.14-.15-.32-.27-.52-.36-.19-.08-.4-.12-.63-.13-.37.01-.67.08-.91.23-.25.16-.45.37-.59.62s-.25.54-.3.87c-.05.33-.08.66-.08 1.01v.27c0 .33.03.67.08 1z"
            opacity=".3"
        />
        <path
            d="M10.08 10.86c.05-.33.16-.62.3-.87s.34-.46.59-.62c.24-.15.54-.22.91-.23.23.01.44.05.63.13.2.09.38.21.52.36s.25.33.34.53c.09.2.13.42.14.64h1.79c-.02-.47-.11-.9-.28-1.29-.17-.39-.4-.73-.7-1.01-.3-.28-.66-.5-1.08-.66-.42-.16-.88-.23-1.39-.23-.65 0-1.22.11-1.7.34-.48.23-.88.53-1.2.92s-.56.84-.71 1.36c-.15.52-.24 1.06-.24 1.64v.27c0 .58.08 1.12.23 1.64.15.52.39.97.71 1.35s.72.69 1.2.91c.48.22 1.05.34 1.7.34.47 0 .91-.08 1.32-.23.41-.15.77-.36 1.08-.63.31-.27.56-.58.74-.94.18-.36.29-.74.3-1.15h-1.79c-.01.21-.06.4-.15.58-.09.18-.21.33-.36.46s-.32.23-.52.3c-.19.07-.39.09-.6.1-.36-.01-.66-.08-.89-.23-.25-.16-.45-.37-.59-.62s-.25-.55-.3-.88c-.05-.33-.08-.67-.08-1v-.27c0-.35.03-.68.08-1.01zM12 2C6.48 2 2 6.48 2 12s4.48 10 10 10 10-4.48 10-10S17.52 2 12 2zm0 18c-4.41 0-8-3.59-8-8s3.59-8 8-8 8 3.59 8 8-3.59 8-8 8z"
        />
      </symbol>

      <symbol id="distance" viewBox="0 0 24 24" ><rect fill="none" height="24" width="24"/><polygon points="21,11 21,3 13,3 16.29,6.29 6.29,16.29 3,13 3,21 11,21 7.71,17.71 17.71,7.71"/></symbol>

      <symbol viewBox="0 0 24 24" id="email">
        <path d="M0 0h24v24H0V0z" fill="none" />
        <path
            d="M20 8l-8 5-8-5v10h16zm0-2H4l8 4.99z"
            opacity=".3"
        />
        <path
            d="M4 20h16c1.1 0 2-.9 2-2V6c0-1.1-.9-2-2-2H4c-1.1 0-2 .9-2 2v12c0 1.1.9 2 2 2zM20 6l-8 4.99L4 6h16zM4 8l8 5 8-5v10H4V8z"
        />
      </symbol>

      <symbol viewBox="0 0 24 24" id="info">
        <path d="M0 0h24v24H0V0z" fill="none" />
        <path
            d="M12 4c-4.41 0-8 3.59-8 8s3.59 8 8 8 8-3.59 8-8-3.59-8-8-8zm1 13h-2v-6h2v6zm0-8h-2V7h2v2z"
            opacity=".3"
        />
        <path
            d="M11 7h2v2h-2zm0 4h2v6h-2zm1-9C6.48 2 2 6.48 2 12s4.48 10 10 10 10-4.48 10-10S17.52 2 12 2zm0 18c-4.41 0-8-3.59-8-8s3.59-8 8-8 8 3.59 8 8-3.59 8-8 8z"
        />
      </symbol>

      <symbol viewBox="0 0 24 24" id="install">
        <path d="M19 9h-4V3H9v6H5l7 7 7-7zM5 18v2h14v-2H5z"/>
      </symbol>

      <symbol viewBox="0 0 24 24" id="longTimeWeather">
        <path d="M0 0h24v24H0V0z" fill="none" />
        <path
            d="M5 5v14h14V5H5zm4 12H7v-7h2v7zm4 0h-2V7h2v10zm4 0h-2v-4h2v4z"
            opacity=".3"
        />
        <path
            d="M19 3H5c-1.1 0-2 .9-2 2v14c0 1.1.9 2 2 2h14c1.1 0 2-.9 2-2V5c0-1.1-.9-2-2-2zm0 16H5V5h14v14zM7 10h2v7H7zm4-3h2v10h-2zm4 6h2v4h-2z"
        />
      </symbol>

      <symbol viewBox="0 0 24 24" id="uvIndex">
        <path d="M0 0h24v24H0V0z" fill="none" />
        <path
            d="M7.6 7.6c-.47 2.34.03 4.78 1.39 6.83l5.45-5.45c-1.53-1.02-3.28-1.56-5.08-1.56-.6 0-1.19.06-1.76.18zM13.12 5c-.93 0-1.82.16-2.67.46 1.91.19 3.79.89 5.44 2.07l1.39-1.39C16.03 5.4 14.61 5 13.12 5zM5 13.12c0 1.49.4 2.91 1.14 4.15l1.39-1.39c-1.18-1.65-1.88-3.52-2.07-5.44-.3.86-.46 1.76-.46 2.68z"
            opacity=".3"
        />
        <path
            d="M13.126 14.56l1.428-1.428 6.442 6.442-1.43 1.428zM13.12 3c-2.58 0-5.16.98-7.14 2.95l-.01.01c-3.95 3.95-3.95 10.36 0 14.31l14.3-14.31C18.3 3.99 15.71 3 13.12 3zM6.14 17.27C5.4 16.03 5 14.61 5 13.12c0-.93.16-1.82.46-2.67.19 1.91.89 3.79 2.07 5.44l-1.39 1.38zm2.84-2.84C7.63 12.38 7.12 9.93 7.6 7.6c.58-.12 1.16-.18 1.75-.18 1.8 0 3.55.55 5.08 1.56l-5.45 5.45zm1.47-8.97c.85-.3 1.74-.46 2.67-.46 1.49 0 2.91.4 4.15 1.14l-1.39 1.39c-1.65-1.18-3.52-1.88-5.43-2.07z"
        />
      </symbol>

        <symbol viewBox="0 0 100 100" id="iosShare">
          <polyline class="arrow" stroke-width="5" points="40,12 50,2 60,12" fill="none"  stroke-linejoin="round"></polyline>
          <line class="arrow-line" stroke-width="5" x1="50" y1="2" x2="50" y2="45"  stroke-linejoin="round"></line>
          <polyline class="rectangle" stroke-width="5" points="45,20 27,20 27,70 73,70 73,20 55,20" fill="none"  stroke-linejoin="round"></polyline> 
      </symbol>

      <symbol viewBox="0 0 24 24" id="magnifier">  
        <path d="M0 0h24v24H0V0z" fill="none" />
        <path
          d="M15.5 14h-.79l-.28-.27C15.41 12.59 16 11.11 16 9.5 16 5.91 13.09 3 9.5 3S3 5.91 3 9.5 5.91 16 9.5 16c1.61 0 3.09-.59 4.23-1.57l.27.28v.79l5 4.99L20.49 19l-4.99-5zm-6 0C7.01 14 5 11.99 5 9.5S7.01 5 9.5 5 14 7.01 14 9.5 11.99 14 9.5 14z"
        />
      </symbol>

      <symbol viewBox="0 0 24 24" id="refresh">
        <path d="M0 0h24v24H0z" fill="none"/><path d="M17.65 6.35C16.2 4.9 14.21 4 12 4c-4.42 0-7.99 3.58-7.99 8s3.57 8 7.99 8c3.73 0 6.84-2.55 7.73-6h-2.08c-.82 2.33-3.04 4-5.65 4-3.31 0-6-2.69-6-6s2.69-6 6-6c1.66 0 3.14.69 4.22 1.78L13 11h7V4l-2.35 2.35z"/>
      </symbol>

      <symbol viewBox="0 0 100 100" id="thermometer">
        <path stroke="#000" stroke-width="1" fill="#fff" d="m19.27125,18.08333l0,-13.16322c0,-1.70222 -1.38385,-3.08056 -3.08423,-3.08056c-1.70406,0 -3.0824,1.37834 -3.0824,3.08056l0,13.05924c-1.93777,1.06182 -3.25354,3.12013 -3.25354,5.48483c0,3.45229 2.799,6.25037 6.25037,6.25037c3.4532,0 6.25036,-2.79808 6.25036,-6.25037c0.00092,-2.29385 -1.23848,-4.29511 -3.08056,-5.38085z"/>
        <rect stroke="#000" stroke-width="1" fill="#ffcdd2" height="11.5625" width="1.4375" y="8.559082" x="15.46875" />
        <ellipse stroke="#000" stroke-width="1" fill="#ffcdd2" ry="3.53125" rx="3.53125" id="svg_7" cy="23.402832" cx="16.0625"/>
      </symbol>

      <!-- small weather icons -->

      <symbol viewBox="0 0 16 16" id="snow">
        <title>Lunta</title>
        <path clip-rule="evenodd" fill-rule="evenodd" d="m12.28 11.608-0.211-0.364h-0.932l0.281-0.502-0.211-0.365h-0.421l-0.493 0.867h-1.38l0.69-1.194 0.957-6e-3 0.211-0.364-0.211-0.365-0.535 4e-3 0.466-0.806-0.212-0.365h-0.421l-0.466 0.807-0.277-0.48h-0.422l-0.211 0.365 0.489 0.845-0.69 1.195-0.689-1.195 0.426-0.729-0.211-0.365h-0.42l-0.216 0.364-0.466-0.807h-0.422l-0.211 0.365 0.466 0.806-0.582 0.025-0.212 0.364 0.212 0.365 1.004-0.023 0.689 1.194h-1.379l-0.481-0.78h-0.422l-0.21 0.365 0.271 0.415h-0.932l-0.211 0.364 0.211 0.365h0.932l-0.241 0.436 0.209 0.365h0.423l0.452-0.801h1.379l-0.689 1.195-0.859-4e-3 -0.212 0.365 0.211 0.365 0.438 4e-3 -0.466 0.807 0.211 0.365h0.422l0.466-0.807 0.289 0.457h0.42l0.211-0.365-0.498-0.822 0.689-1.195 0.69 1.195-0.431 0.766 0.21 0.365h0.422l0.22-0.4 0.466 0.807h0.421l0.212-0.365-0.466-0.807 0.578 0.012 0.211-0.365-0.211-0.365-1-0.012-0.69-1.195h1.38l0.464 0.816h0.421l0.21-0.367-0.253-0.451h0.932z" />
      </symbol>

      <symbol viewBox="0 0 16 16" id="thunder">
        <title>Ukkosta</title>        
        <path d="m0.083954 14.931 10.671-9.721-3.485 0.444 7.364-5.62-9.195 1.942-4.87 8.789 3.159-2.41z" fill="#ffa800"/>
      </symbol>
      
      <symbol viewBox="0 0 42 42" id="rain">
        <title>Sadetta</title>
        <path fill="#74ccf4" d="m29.66391,29.25916c0,4.95892 -4.01471,8.97363 -8.97735,8.97363c-4.9552,0 -8.97735,-4.01471 -8.97735,-8.97363s9.65762,-19.54571 9.65762,-19.47136c0.00372,0.1078 8.29708,14.51245 8.29708,19.47136z" />
      </symbol>
      
      <symbol viewBox="0 0 16 16" id="slush">
        <title>Räntää</title>
        <path clip-rule="evenodd" fill-rule="evenodd" d="m14.288 12.629c0 1.334-1.081 2.414-2.415 2.414-1.333 0-2.415-1.08-2.415-2.414s2.598-5.258 2.598-5.238c0 0.029 2.232 3.904 2.232 5.238z"/>
        <path d="m8.7843 11.283-0.211-0.364h-0.932l0.281-0.502-0.211-0.365h-0.421l-0.493 0.867h-1.38l0.69-1.194 0.957-6e-3 0.211-0.364-0.211-0.365-0.535 4e-3 0.466-0.806-0.212-0.365h-0.421l-0.466 0.807-0.277-0.48h-0.422l-0.211 0.365 0.489 0.845-0.69 1.195-0.689-1.195 0.426-0.729-0.211-0.365h-0.42l-0.216 0.364-0.466-0.807h-0.422l-0.211 0.365 0.466 0.806-0.582 0.025-0.212 0.364 0.212 0.365 1.004-0.023 0.689 1.194h-1.379l-0.481-0.78h-0.422l-0.21 0.365 0.271 0.415h-0.932l-0.211 0.364 0.211 0.365h0.932l-0.241 0.436 0.209 0.365h0.423l0.452-0.801h1.379l-0.689 1.195-0.859-4e-3 -0.212 0.365 0.211 0.365 0.438 4e-3 -0.466 0.807 0.211 0.365h0.422l0.466-0.807 0.289 0.457h0.42l0.211-0.365-0.498-0.822 0.689-1.195 0.69 1.195-0.431 0.766 0.21 0.365h0.422l0.22-0.4 0.466 0.807h0.421l0.212-0.365-0.466-0.807 0.578 0.012 0.211-0.365-0.211-0.365-1-0.012-0.69-1.195h1.38l0.464 0.816h0.421l0.21-0.367-0.253-0.451h0.932z" />
      </symbol>
      
      <symbol id="sunrise">
          <g>
            <polygon
              points="25.37457847595215,7.4070011377334595 27.577577590942383,11.612001061439514 31.702577590942383,9.266000390052795 31.280576705932617,13.993000626564026 36.020578384399414,14.250000596046448 33.110578536987305,18.000000596046448 36.9605770111084,20.778000473976135 32.48357582092285,22.36000120639801 34.22057914733887,26.775999665260315 29.60157585144043,25.688000321388245 28.671579360961914,30.343001008033752 25.37457847595215,26.929001450538635 22.075578689575195,30.343001008033752 21.1475772857666,25.688000321388245 16.52857780456543,26.775999665260315 18.26357650756836,22.36000120639801 13.788578033447266,20.778000473976135 17.636577606201172,18.000000596046448 14.728578567504883,14.250000596046448 19.466577529907227,13.993000626564026 19.04657745361328,9.266000390052795 23.171579360961914,11.612001061439514 "
              fill="#ffa800"
            />
            <circle
              r="6.362"
              cy="18.738"
              cx="25.37357"
              stroke-width="1.3028"
              stroke="#FFFFFF"
              fill="#ffa800"
            />
          </g>
          <ellipse
            stroke="#fff"
            ry="15.10393"
            rx="17.90605"
            cy="36.53806"
            cx="19.43741"
            fill="#3f976e"
          />
          <path
            d="m3.03391,15.93057l4.8437,-7.18066l4.8437,7.18066l-2.42185,0l0,7.2152l-4.8437,0l0,-7.2152l-2.42185,0z"
            stroke-width="0"
          />
      </symbol>

       <symbol id="sunset">
          <path
            d="m27.65561,16.49653l4.8437,7.25316l4.8437,-7.25316l-2.42185,0l0,-7.28806l-4.8437,0l0,7.28806l-2.42185,0z"
            stroke-width="0"
          />
          <g>
            <polygon
              points="13.624427795410156,12.156871795654297 15.827423095703125,16.361873626708984 19.952423095703125,14.015871047973633 19.530426025390625,18.74287223815918 24.270431518554688,18.9998722076416 21.360427856445312,22.7498722076416 25.210426330566406,25.52787208557129 20.733428955078125,27.109872817993164 22.470428466796875,31.52587127685547 17.851425170898438,30.4378719329834 16.921424865722656,35.092872619628906 13.624427795410156,31.678874969482422 10.325424194335938,35.092872619628906 9.397430419921875,30.4378719329834 4.778430938720703,31.52587127685547 6.513427734375,27.109872817993164 2.038433074951172,25.52787208557129 5.8864288330078125,22.7498722076416 2.978435516357422,18.9998722076416 7.7164306640625,18.74287223815918 7.296424865722656,14.015871047973633 11.421432495117188,16.361873626708984 "
              fill="#ffa800"
            />
            <circle
              r="6.362"
              cy="23.48787"
              cx="13.62343"
              stroke-width="1.3028"
              stroke="#FFFFFF"
              fill="#ffa800"
            />
          </g>
          <ellipse
            stroke="#fff"
            ry="15.10393"
            rx="17.90605"
            id="svg_9"
            cy="35.28807"
            cx="18.56174"
            fill="#3f976e"
          />
      </symbol>
      <symbol id="time" viewBox="0 0 24 24">
        <path
          d="M12,20A8,8 0 0,0 20,12A8,8 0 0,0 12,4A8,8 0 0,0 4,12A8,8 0 0,0 12,20M12,2A10,10 0 0,1 22,12A10,10 0 0,1 12,22C6.47,22 2,17.5 2,12A10,10 0 0,1 12,2M12.5,7V12.25L17,14.92L16.25,16.15L11,13V7H12.5Z"
        ></path>
      </symbol>

    </defs>
  </svg>
