<?xml version="1.0" encoding="UTF-8"?>
<svg>
  <g
     id="g4"
     transform="matrix(3.4533507,0,0,3.4533507,-47.865914,-90.422265)">
    <path
       d="m 22.486,30.729 -0.211,-0.365 h -0.932 l 0.281,-0.502 -0.211,-0.365 h -0.42 L 20.5,30.364 h -1.379 l 0.689,-1.194 0.957,-0.005 0.211,-0.365 -0.211,-0.365 -0.535,0.004 0.467,-0.806 -0.213,-0.365 h -0.42 L 19.6,28.074 19.323,27.594 H 18.9 l -0.211,0.365 0.49,0.845 -0.691,1.195 -0.688,-1.195 0.425,-0.729 -0.211,-0.365 h -0.42 l -0.216,0.364 -0.466,-0.807 H 16.49 l -0.211,0.365 0.466,0.806 -0.582,0.025 -0.212,0.365 0.212,0.365 1.004,-0.024 0.688,1.194 h -1.379 l -0.481,-0.779 h -0.422 l -0.21,0.364 0.271,0.415 h -0.932 l -0.211,0.365 0.211,0.365 h 0.932 l -0.241,0.436 0.209,0.365 h 0.423 l 0.452,-0.801 h 1.379 l -0.688,1.195 -0.859,-0.004 -0.211,0.364 0.211,0.366 0.438,0.003 -0.466,0.808 0.211,0.365 h 0.422 l 0.466,-0.808 0.289,0.458 h 0.419 l 0.211,-0.365 -0.499,-0.82 0.688,-1.195 0.691,1.195 -0.432,0.764 0.211,0.365 h 0.422 l 0.219,-0.399 0.467,0.808 h 0.42 l 0.213,-0.365 -0.467,-0.808 0.578,0.012 0.211,-0.366 -0.21,-0.366 -1,-0.01 -0.689,-1.195 H 20.5 l 0.465,0.815 h 0.42 l 0.213,-0.365 -0.254,-0.45 h 0.932 z"
       style="clip-rule:evenodd;fill:#0060e8;fill-rule:evenodd" />
  </g>
</svg>
