<svg width="84.652" height="28.964" version="1.1" viewBox="0 0 22.397 7.6632" xmlns="http://www.w3.org/2000/svg">
  <g>
    <path d="m19.305 13.398h-13.016m0 0c0-3.5942 2.9136-6.5078 6.5078-6.5078 3.5942 3e-7 6.5078 2.9136 6.5078 6.5078" fill="none" stroke="#ccc" stroke-linecap="round" stroke-linejoin="round" stroke-width=".13229"/>
    <text x="12.768609" y="11.710749" fill="#000000" font-family="sans-serif" font-size="1.0583px" letter-spacing="0px" stroke-width=".26458" text-align="center" text-anchor="middle" word-spacing="0px" style="line-height:1" xml:space="preserve"><tspan x="12.768609" y="11.710749" text-align="center">laskuun</tspan><tspan x="12.768609" y="12.769078" text-align="center">6h 24min</tspan></text>
    <text x="1.5459259" y="12.976122" fill="#000000" font-family="sans-serif" font-size="1.0583px" letter-spacing="0px" stroke-width=".26458" word-spacing="0px" style="line-height:1.25" xml:space="preserve"><tspan x="1.5459259" y="12.976122" font-size="1.0583px" stroke-width=".26458">08.37</tspan></text>
    <path d="m1.5746 13.43h22.368" fill="#808080" stroke="#626262" stroke-width=".13229"/>
    <rect x="6.289" y="13.398" width="12.938" height=".77735" fill="#808080"/>
  </g>
  <g fill="#b3b3b3">
    <path d="m88 166.06v301.94c0.04078 12.528 13.851 12.63 23.012 12 16.524-0.53616 33.328 1.1296 49.659-0.94308 11.118-5.4704 6.2578-19.218 7.3292-29.076v-283.92c17.829-0.57611 35.893 1.2638 53.547-1.1403 19.036-5.4336 21.836-32.673 5.9434-43.37-28.142-28.026-56.058-56.291-84.343-84.167-11.543-10.058-28.7-4.7926-37.073 6.6026-27.811 28.082-56.187 55.641-83.64 84.056-13.001 16.311 3.3611 41.796 23.511 38.019h42.054z" fill="#b3b3b3" style="font-feature-settings:normal;font-variant-alternates:normal;font-variant-caps:normal;font-variant-east-asian:normal;font-variant-ligatures:normal;font-variant-numeric:normal;font-variant-position:normal;font-variation-settings:normal;inline-size:0;isolation:auto;mix-blend-mode:normal;shape-margin:0;shape-padding:0;text-decoration-color:#000000;text-decoration-line:none;text-decoration-style:solid;text-indent:0;text-orientation:mixed;text-transform:none;white-space:normal"/>
    <path d="m128 31.502c-15.894 0.21236-24.147 15.639-35.02 24.87-23.58 23.854-47.733 47.178-70.947 71.372-13.246 16.613 3.367 42.617 23.913 38.815h41.555v301.44c7e-3 12.811 14.07 13.212 23.512 12.5 15.831-0.15983 31.695 0.32589 47.506-0.25421 13.237-3.113 9.4443-18.248 9.9826-28.263v-285.42c17.714-0.56168 35.659 1.2513 53.195-1.1647 19.381-5.5184 22.32-33.265 6.1493-44.199-28.155-28.037-56.079-56.317-84.38-84.201-4.3186-3.5457-9.8801-5.5081-15.465-5.4926zm0 0.99414c15.572 0.321 23.598 15.558 34.313 24.583 23.55 23.814 47.65 47.118 70.85 71.257 12.755 16.01-3.3554 40.974-23.109 37.223h-42.555v302.44c-0.077 12.241-13.631 12.044-22.512 11.5-16.461-0.51984-33.191 1.0907-49.467-0.90296-10.819-5.4445-5.9076-18.949-7.0214-28.616v-284.42c-17.946-0.57154-36.125 1.2479-53.9-1.1156-18.692-5.348-21.351-32.08-5.7372-42.541 28.129-28.016 56.037-56.264 84.305-84.134 4.1415-3.4018 9.475-5.2876 14.832-5.2727z" fill="#b3b3b3" style="font-feature-settings:normal;font-variant-alternates:normal;font-variant-caps:normal;font-variant-east-asian:normal;font-variant-ligatures:normal;font-variant-numeric:normal;font-variant-position:normal;font-variation-settings:normal;inline-size:0;isolation:auto;mix-blend-mode:normal;shape-margin:0;shape-padding:0;text-decoration-color:#000000;text-decoration-line:none;text-decoration-style:solid;text-indent:0;text-orientation:mixed;text-transform:none;white-space:normal"/>
  </g>
  <g id="sun" fill="#ffa800">
    <polygon points="22.727 25.313 21.797 29.968 18.5 26.554 15.201 29.968 14.273 25.313 9.654 26.401 11.389 21.985 6.914 20.403 10.762 17.625 7.854 13.875 12.592 13.618 12.172 8.891 16.297 11.237 18.5 7.032 20.703 11.237 24.828 8.891 24.406 13.618 29.146 13.875 26.236 17.625 30.086 20.403 25.609 21.985 27.346 26.401"/>
    <circle cx="18.499" cy="18.363" r="6.362" stroke="#fff" stroke-width="1.3028"/>
  </g>
  <g fill="#b3b3b3">
    <path d="m88 166.06v301.94c0.04078 12.528 13.851 12.63 23.012 12 16.524-0.53616 33.328 1.1296 49.659-0.94308 11.118-5.4704 6.2578-19.218 7.3292-29.076v-283.92c17.829-0.57611 35.893 1.2638 53.547-1.1403 19.036-5.4336 21.836-32.673 5.9434-43.37-28.142-28.026-56.058-56.291-84.343-84.167-11.543-10.058-28.7-4.7926-37.073 6.6026-27.811 28.082-56.187 55.641-83.64 84.056-13.001 16.311 3.3611 41.796 23.511 38.019h42.054z" fill="#b3b3b3" style="font-feature-settings:normal;font-variant-alternates:normal;font-variant-caps:normal;font-variant-east-asian:normal;font-variant-ligatures:normal;font-variant-numeric:normal;font-variant-position:normal;font-variation-settings:normal;inline-size:0;isolation:auto;mix-blend-mode:normal;shape-margin:0;shape-padding:0;text-decoration-color:#000000;text-decoration-line:none;text-decoration-style:solid;text-indent:0;text-orientation:mixed;text-transform:none;white-space:normal"/>
    <path d="m128 31.502c-15.894 0.21236-24.147 15.639-35.02 24.87-23.58 23.854-47.733 47.178-70.947 71.372-13.246 16.613 3.367 42.617 23.913 38.815h41.555v301.44c7e-3 12.811 14.07 13.212 23.512 12.5 15.831-0.15983 31.695 0.32589 47.506-0.25421 13.237-3.113 9.4443-18.248 9.9826-28.263v-285.42c17.714-0.56168 35.659 1.2513 53.195-1.1647 19.381-5.5184 22.32-33.265 6.1493-44.199-28.155-28.037-56.079-56.317-84.38-84.201-4.3186-3.5457-9.8801-5.5081-15.465-5.4926zm0 0.99414c15.572 0.321 23.598 15.558 34.313 24.583 23.55 23.814 47.65 47.118 70.85 71.257 12.755 16.01-3.3554 40.974-23.109 37.223h-42.555v302.44c-0.077 12.241-13.631 12.044-22.512 11.5-16.461-0.51984-33.191 1.0907-49.467-0.90296-10.819-5.4445-5.9076-18.949-7.0214-28.616v-284.42c-17.946-0.57154-36.125 1.2479-53.9-1.1156-18.692-5.348-21.351-32.08-5.7372-42.541 28.129-28.016 56.037-56.264 84.305-84.134 4.1415-3.4018 9.475-5.2876 14.832-5.2727z" fill="#b3b3b3" style="font-feature-settings:normal;font-variant-alternates:normal;font-variant-caps:normal;font-variant-east-asian:normal;font-variant-ligatures:normal;font-variant-numeric:normal;font-variant-position:normal;font-variation-settings:normal;inline-size:0;isolation:auto;mix-blend-mode:normal;shape-margin:0;shape-padding:0;text-decoration-color:#000000;text-decoration-line:none;text-decoration-style:solid;text-indent:0;text-orientation:mixed;text-transform:none;white-space:normal"/>
  </g>
  <text x="19.455805" y="6.157918" fill="#000000" font-family="sans-serif" font-size="1.0583px" letter-spacing="0px" stroke-width=".26458" word-spacing="0px" style="line-height:1.25" xml:space="preserve"><tspan x="19.455805" y="6.157918" font-size="1.0583px" stroke-width=".26458">08.37</tspan></text>
</svg>
