<svg xmlns="http://www.w3.org/2000/svg" preserveAspectRatio="xMidYMid meet" focusable="false">
    <defs>

        <symbol viewBox="0 0 37 37" id="weatherSymbol1">
            <title>Selkeää</title>
            <polygon fill="#ffa800"
                points="18.5,7.032 20.703,11.237 24.828,8.891 24.406,13.618 29.146,13.875 26.236,17.625 
                        30.086,20.403 25.609,21.985 27.346,26.401 22.727,25.313 21.797,29.968 18.5,26.554 15.201,29.968 14.273,25.313 9.654,26.401 
                        11.389,21.985 6.914,20.403 10.762,17.625 7.854,13.875 12.592,13.618 12.172,8.891 16.297,11.237"></polygon>
            <circle fill="#ffa800" stroke="#FFFFFF" stroke-width="1.3028" cx="18.499" cy="18.363" r="6.362"></circle>
        </symbol>

        <symbol viewBox="0 0 37 37" id="weatherSymbol2">
            <title>Puolipilvistä</title>
            <polygon fill="#ffa800" points="12.576,4.531 14.29,7.804 17.502,5.978 17.175,9.658 20.866,9.857 18.6,12.779 21.596,14.941 
                        18.111,16.171 19.464,19.613 15.865,18.765 15.143,22.389 12.576,19.73 10.007,22.389 9.285,18.765 5.687,19.613 7.039,16.171 
                        3.553,14.941 6.551,12.779 4.286,9.857 7.976,9.658 7.648,5.978 10.86,7.804"></polygon>
            <circle fill="#ffa800" stroke="#FFFFFF" stroke-width="1.0144" cx="12.574" cy="13.353" r="4.955"></circle>
            <path fill="#FFFFFF" stroke="#424242" d="M27.496,14.171c-1.088-3.08-3.998-5.289-7.43-5.289c-3.423,0-6.327,2.201-7.421,5.27
                        c-2.793,0.094-5.029,2.381-5.029,5.196c0,2.873,2.33,5.203,5.203,5.203c1.141,0,2.191-0.371,3.049-0.994
                        c1.217,0.773,2.654,1.227,4.198,1.227c1.467,0,2.834-0.408,4.01-1.109c0.826,0.553,1.82,0.877,2.889,0.877
                        c2.873,0,5.203-2.33,5.203-5.203C32.168,16.652,30.121,14.437,27.496,14.171z"></path>
        </symbol>

        <symbol viewBox="0 0 37 37" id="weatherSymbol3">
            <title>Pilvistä</title>
            <path fill="#FFFFFF" stroke="#424242" d="M26.104,14.171c-1.088-3.08-3.998-5.289-7.429-5.289c-3.423,0-6.327,2.201-7.421,5.27
                        c-2.793,0.094-5.029,2.381-5.029,5.196c0,2.873,2.33,5.203,5.203,5.203c1.141,0,2.191-0.371,3.049-0.994
                        c1.217,0.773,2.654,1.227,4.198,1.227c1.466,0,2.833-0.408,4.009-1.109c0.826,0.553,1.82,0.877,2.889,0.877
                        c2.873,0,5.203-2.33,5.203-5.203C30.775,16.651,28.729,14.437,26.104,14.171z"></path>
        </symbol>

        <symbol viewBox="0 0 37 37" id="weatherSymbol21">
            <title>Heikkoja sadekuuroja</title>
            <g>
                <polygon fill="#ffa800" points="12.576,4.531 14.29,7.804 17.502,5.978 17.175,9.658 20.866,9.857 18.6,12.779 21.596,14.941 
                            18.111,16.171 19.464,19.613 15.865,18.765 15.143,22.389 12.576,19.73 10.007,22.389 9.285,18.765 5.687,19.613 7.039,16.171 
                            3.553,14.941 6.551,12.779 4.286,9.857 7.976,9.658 7.648,5.978 10.86,7.804"></polygon>
                <circle fill="#ffa800" stroke="#FFFFFF" stroke-width="1.0144" cx="12.574" cy="13.353" r="4.955">
                </circle>
            </g>
            <g>
                <path fill="#219ebd" d="M22.307,31.775c0,1.334-1.081,2.414-2.415,2.414c-1.333,0-2.415-1.08-2.415-2.414
                            s2.598-5.258,2.598-5.238C20.075,26.566,22.307,30.441,22.307,31.775z"></path>
                <path fill="#FFFFFF" stroke="#424242" d="M27.496,14.171c-1.088-3.08-3.998-5.289-7.43-5.289c-3.423,0-6.327,2.201-7.421,5.27
                            c-2.793,0.094-5.029,2.381-5.029,5.196c0,2.873,2.33,5.203,5.203,5.203c1.141,0,2.191-0.371,3.049-0.994
                            c1.217,0.773,2.654,1.227,4.198,1.227c1.467,0,2.834-0.408,4.01-1.109c0.826,0.553,1.82,0.877,2.889,0.877
                            c2.873,0,5.203-2.33,5.203-5.203C32.168,16.652,30.121,14.437,27.496,14.171z"></path>
            </g>
        </symbol>

        <symbol viewBox="0 0 37 37" id="weatherSymbol22">
            <title>Sadekuuroja</title>
            <g>
                <polygon fill="#ffa800" points="12.576,4.531 14.29,7.804 17.502,5.978 17.175,9.658 20.866,9.857 18.6,12.779 21.596,14.941 
                            18.111,16.171 19.464,19.613 15.865,18.765 15.143,22.389 12.576,19.73 10.007,22.389 9.285,18.765 5.687,19.613 7.039,16.171 
                            3.553,14.941 6.551,12.779 4.286,9.857 7.976,9.658 7.648,5.978 10.86,7.804 			"></polygon>
                <circle fill="#ffa800" stroke="#FFFFFF" stroke-width="1.0144" cx="12.574" cy="13.353" r="4.955">
                </circle>
            </g>
            <g>
                <g>
                    <path fill="#219ebd" d="M19.098,31.775c0,1.334-1.081,2.414-2.415,2.414c-1.333,0-2.415-1.08-2.415-2.414
                            s2.599-5.258,2.599-5.238C16.867,26.566,19.098,30.441,19.098,31.775z"></path>
                    <path fill="#219ebd" d="M25.517,31.775c0,1.334-1.081,2.414-2.415,2.414c-1.333,0-2.414-1.08-2.414-2.414
                            s2.597-5.258,2.597-5.238C23.284,26.566,25.517,30.441,25.517,31.775z"></path>
                </g>
                <path fill="#FFFFFF" stroke="#424242" d="M27.496,14.171c-1.088-3.08-3.998-5.289-7.43-5.289c-3.423,0-6.327,2.201-7.421,5.27
                            c-2.793,0.094-5.029,2.381-5.029,5.196c0,2.873,2.33,5.203,5.203,5.203c1.141,0,2.191-0.371,3.049-0.994
                            c1.217,0.773,2.654,1.227,4.198,1.227c1.467,0,2.834-0.408,4.01-1.109c0.826,0.553,1.82,0.877,2.889,0.877
                            c2.873,0,5.203-2.33,5.203-5.203C32.168,16.652,30.121,14.437,27.496,14.171z"></path>
            </g>
        </symbol>

        <symbol viewBox="0 0 37 37" id="weatherSymbol23">
            <title>Voimakkaita sadekuuroja</title>
            <g>
                <polygon fill="#ffa800" points="12.576,4.531 14.29,7.804 17.502,5.978 17.175,9.658 20.866,9.857 18.6,12.779 21.596,14.941 
                            18.111,16.171 19.464,19.613 15.865,18.765 15.143,22.389 12.576,19.73 10.007,22.389 9.285,18.765 5.687,19.613 7.039,16.171 
                            3.553,14.941 6.551,12.779 4.286,9.857 7.976,9.658 7.648,5.978 10.86,7.804 			"></polygon>
                <circle fill="#ffa800" stroke="#FFFFFF" stroke-width="1.0144" cx="12.574" cy="13.353" r="4.955">
                </circle>
            </g>
            <g>
                <g>
                    <path fill="#219ebd" d="M22.456,31.775c0,1.334-1.081,2.414-2.415,2.414c-1.333,0-2.415-1.08-2.415-2.414
                                s2.599-5.258,2.599-5.238C20.225,26.566,22.456,30.441,22.456,31.775z"></path>
                    <path fill="#219ebd" d="M28.875,31.775c0,1.334-1.081,2.414-2.415,2.414c-1.333,0-2.414-1.08-2.414-2.414
                                s2.597-5.258,2.597-5.238C26.643,26.566,28.875,30.441,28.875,31.775z"></path>
                    <path fill="#219ebd" d="M15.74,31.775c0,1.334-1.08,2.414-2.414,2.414s-2.415-1.08-2.415-2.414s2.598-5.258,2.598-5.238
                                C13.509,26.566,15.74,30.441,15.74,31.775z"></path>
                </g>
                <g>
                    <path fill="#FFFFFF" stroke="#424242" d="M27.497,14.171c-1.088-3.08-3.998-5.289-7.43-5.289c-3.424,0-6.328,2.201-7.422,5.27
                                c-2.793,0.094-5.029,2.381-5.029,5.196c0,2.873,2.33,5.203,5.203,5.203c1.141,0,2.191-0.371,3.049-0.994
                                c1.217,0.773,2.654,1.227,4.199,1.227c1.467,0,2.834-0.408,4.01-1.109c0.826,0.553,1.82,0.877,2.889,0.877
                                c2.873,0,5.203-2.33,5.203-5.203C32.169,16.651,30.122,14.437,27.497,14.171z"></path>
                </g>
            </g>
        </symbol>

        <symbol viewBox="0 0 37 37" id="weatherSymbol31">
            <title>Heikkoa vesisadetta</title>
            <g>
                <path fill="#219ebd" d="M20.914,31.775c0,1.334-1.08,2.414-2.415,2.414c-1.333,0-2.415-1.08-2.415-2.414s2.598-5.258,2.598-5.238
                                C18.683,26.566,20.914,30.441,20.914,31.775z"></path>
                <path fill="#FFFFFF" stroke="#424242" d="M26.104,14.171c-1.088-3.08-3.998-5.289-7.429-5.289c-3.423,0-6.327,2.201-7.421,5.27
                                c-2.793,0.094-5.029,2.381-5.029,5.196c0,2.873,2.33,5.203,5.203,5.203c1.141,0,2.191-0.371,3.049-0.994
                                c1.217,0.773,2.654,1.227,4.198,1.227c1.466,0,2.833-0.408,4.009-1.109c0.826,0.553,1.82,0.877,2.889,0.877
                                c2.873,0,5.203-2.33,5.203-5.203C30.775,16.652,28.729,14.437,26.104,14.171z"></path>
            </g>
        </symbol>

        <symbol viewBox="0 0 37 37" id="weatherSymbol32">
            <title>Vesisadetta</title>
            <g>
                <path fill="#219ebd" d="M24.273,31.775c0,1.334-1.082,2.414-2.416,2.414c-1.332,0-2.414-1.08-2.414-2.414
                            s2.598-5.258,2.598-5.238C22.041,26.566,24.273,30.441,24.273,31.775z"></path>
                <path fill="#219ebd" d="M17.556,31.775c0,1.334-1.08,2.414-2.414,2.414s-2.415-1.08-2.415-2.414s2.598-5.258,2.598-5.238
                            C15.325,26.566,17.556,30.441,17.556,31.775z"></path>
            </g>
            <path fill="#FFFFFF" stroke="#424242" d="M26.104,14.171c-1.088-3.08-3.998-5.289-7.429-5.289c-3.423,0-6.327,2.201-7.421,5.27
                        c-2.793,0.094-5.029,2.381-5.029,5.196c0,2.873,2.33,5.203,5.203,5.203c1.141,0,2.191-0.371,3.049-0.994
                        c1.217,0.773,2.654,1.227,4.198,1.227c1.466,0,2.833-0.408,4.009-1.109c0.826,0.553,1.82,0.877,2.889,0.877
                        c2.873,0,5.203-2.33,5.203-5.203C30.775,16.652,28.729,14.437,26.104,14.171z"></path>
        </symbol>

        <symbol viewBox="0 0 37 37" id="weatherSymbol33">
            <title>Voimakasta vesisadetta</title>
            <g>
                <path fill="#219ebd" d="M22.456,31.775c0,1.334-1.081,2.414-2.415,2.414c-1.333,0-2.415-1.08-2.415-2.414
            s2.599-5.258,2.599-5.238C20.225,26.566,22.456,30.441,22.456,31.775z"></path>
                <path fill="#219ebd" d="M28.875,31.775c0,1.334-1.081,2.414-2.415,2.414c-1.333,0-2.414-1.08-2.414-2.414
            s2.597-5.258,2.597-5.238C26.643,26.566,28.875,30.441,28.875,31.775z"></path>
                <path fill="#219ebd" d="M15.74,31.775c0,1.334-1.08,2.414-2.414,2.414s-2.415-1.08-2.415-2.414s2.598-5.258,2.598-5.238
            C13.509,26.566,15.74,30.441,15.74,31.775z"></path>
            </g>
            <g>
                <path fill="#FFFFFF" stroke="#424242" d="M26.104,14.171c-1.088-3.08-3.998-5.289-7.429-5.289c-3.423,0-6.327,2.201-7.421,5.27
        c-2.793,0.094-5.029,2.381-5.029,5.196c0,2.873,2.33,5.203,5.203,5.203c1.141,0,2.191-0.371,3.049-0.994
        c1.217,0.773,2.654,1.227,4.198,1.227c1.466,0,2.833-0.408,4.009-1.109c0.826,0.553,1.82,0.877,2.889,0.877
        c2.873,0,5.203-2.33,5.203-5.203C30.775,16.652,28.729,14.437,26.104,14.171z"></path>
            </g>
        </symbol>

        <symbol viewBox="0 0 37 37" id="weatherSymbol41">
            <title>Heikkoja lumikuuroja</title>
            <g>
                <polygon fill="#ffa800" points="12.576,4.531 14.29,7.804 17.502,5.978 17.175,9.658 20.866,9.857 18.6,12.779 21.596,14.941 
                    18.111,16.171 19.464,19.613 15.865,18.765 15.143,22.389 12.576,19.73 10.007,22.389 9.285,18.765 5.687,19.613 7.039,16.171 
                    3.553,14.941 6.551,12.779 4.286,9.857 7.976,9.658 7.648,5.978 10.86,7.804"></polygon>
                <circle fill="#ffa800" stroke="#FFFFFF" stroke-width="1.0144" cx="12.574" cy="13.353" r="4.955"></circle>
            </g>
            <g>
                <g>
                    <g>
                        <path fill="#FFFFFF" stroke="#424242" d="M27.517,14.171c-1.088-3.08-3.998-5.289-7.43-5.289c-3.424,0-6.328,2.201-7.422,5.27
                            c-2.793,0.094-5.029,2.381-5.029,5.196c0,2.873,2.33,5.203,5.203,5.203c1.141,0,2.191-0.371,3.049-0.994
                            c1.217,0.773,2.654,1.227,4.199,1.227c1.467,0,2.834-0.408,4.01-1.109c0.826,0.553,1.82,0.877,2.889,0.877
                            c2.873,0,5.203-2.33,5.203-5.203C32.188,16.651,30.142,14.437,27.517,14.171z"></path>
                    </g>
                </g>
                <g>
                    <path fill-rule="evenodd" clip-rule="evenodd" fill="#219ebd" d="M23.898,30.729l-0.211-0.365h-0.932l0.281-0.502l-0.211-0.365
            h-0.42l-0.494,0.867h-1.379l0.689-1.194l0.957-0.005l0.211-0.365l-0.211-0.365l-0.535,0.004l0.467-0.806l-0.213-0.365h-0.42
            l-0.467,0.807l-0.277-0.48h-0.422l-0.211,0.365l0.49,0.845L19.9,29.999l-0.688-1.195l0.425-0.729l-0.211-0.365h-0.42
            l-0.216,0.364l-0.466-0.807h-0.422l-0.211,0.365l0.466,0.806l-0.582,0.025l-0.212,0.365l0.212,0.365l1.004-0.024l0.688,1.194
            h-1.379l-0.481-0.779h-0.422l-0.21,0.364l0.271,0.415h-0.932l-0.211,0.365l0.211,0.365h0.932l-0.241,0.436l0.209,0.365h0.423
            l0.452-0.801h1.379l-0.688,1.195l-0.859-0.004l-0.211,0.364l0.211,0.366l0.438,0.003l-0.466,0.808l0.211,0.365h0.422
            l0.466-0.808l0.289,0.458h0.419l0.211-0.365l-0.497-0.822L19.9,31.46l0.691,1.195l-0.432,0.764l0.211,0.365h0.422l0.219-0.399
            l0.467,0.808h0.42l0.213-0.365l-0.467-0.808l0.578,0.012l0.211-0.366L22.223,32.3l-1-0.01l-0.689-1.195h1.379l0.465,0.815h0.42
            l0.213-0.365l-0.254-0.45h0.932L23.898,30.729z"></path>
                </g>
            </g>
        
            </symbol>
            
            <symbol viewBox="0 0 37 37" id="weatherSymbol42">
                <title>Lumikuuroja</title>
                <g>
                    <polygon fill="#ffa800" points="12.576,4.531 14.29,7.804 17.502,5.978 17.175,9.658 20.866,9.857 18.6,12.779 21.596,14.941 
        18.111,16.171 19.464,19.613 15.865,18.765 15.143,22.389 12.576,19.73 10.007,22.389 9.285,18.765 5.687,19.613 7.039,16.171 
        3.553,14.941 6.551,12.779 4.286,9.857 7.976,9.658 7.648,5.978 10.86,7.804 				"></polygon>
                    <circle fill="#ffa800" stroke="#FFFFFF" stroke-width="1.0144" cx="12.574" cy="13.353" r="4.955">
                    </circle>
                </g>
                <g>
                    <g>
                        <path fill="#FFFFFF" stroke="#424242" d="M27.497,14.171c-1.088-3.08-3.998-5.289-7.43-5.289c-3.424,0-6.328,2.201-7.422,5.27
            c-2.793,0.094-5.029,2.381-5.029,5.196c0,2.873,2.33,5.203,5.203,5.203c1.141,0,2.191-0.371,3.049-0.994
            c1.217,0.773,2.654,1.227,4.199,1.227c1.467,0,2.834-0.408,4.01-1.109c0.826,0.553,1.82,0.877,2.889,0.877
            c2.873,0,5.203-2.33,5.203-5.203C32.169,16.651,30.122,14.437,27.497,14.171z"></path>
                    </g>
                </g>
                <g>
                    <path fill-rule="evenodd" clip-rule="evenodd" fill="#219ebd" d="M19.735,30.729l-0.211-0.365h-0.931l0.281-0.502l-0.211-0.365
        h-0.42l-0.494,0.867h-1.379l0.689-1.194l0.957-0.005l0.211-0.365l-0.211-0.365l-0.535,0.004l0.467-0.806l-0.213-0.365h-0.42
        l-0.467,0.807l-0.277-0.48H16.15l-0.211,0.365l0.49,0.845l-0.691,1.195l-0.688-1.195l0.425-0.729l-0.211-0.365h-0.42
        l-0.216,0.364l-0.466-0.807H13.74l-0.211,0.365l0.466,0.806l-0.582,0.025l-0.212,0.365l0.212,0.365l1.004-0.024l0.688,1.194
        h-1.379l-0.481-0.779h-0.422l-0.21,0.364l0.271,0.415h-0.932l-0.211,0.365l0.211,0.365h0.932l-0.241,0.436l0.209,0.365h0.423
        l0.452-0.801h1.379l-0.688,1.195l-0.859-0.004l-0.211,0.364l0.211,0.366l0.438,0.003l-0.466,0.808l0.211,0.365h0.422
        l0.466-0.808l0.289,0.458h0.419l0.211-0.365l-0.497-0.822l0.688-1.195l0.691,1.195l-0.432,0.764l0.211,0.365h0.422l0.219-0.399
        l0.467,0.808h0.42l0.213-0.365l-0.467-0.808l0.578,0.012l0.211-0.366L18.06,32.3l-1-0.01l-0.689-1.195h1.379l0.465,0.815h0.42
        l0.213-0.365l-0.254-0.45h0.931L19.735,30.729z"></path>
                    <path fill-rule="evenodd" clip-rule="evenodd" fill="#219ebd" d="M28.045,30.729l-0.211-0.365h-0.932l0.283-0.502l-0.211-0.365
        h-0.422l-0.492,0.867H24.68l0.689-1.194l0.959-0.005l0.209-0.365l-0.209-0.365l-0.535,0.004l0.465-0.806l-0.211-0.365h-0.422
        l-0.467,0.807l-0.277-0.48h-0.422l-0.211,0.365l0.49,0.845l-0.691,1.195l-0.689-1.195l0.426-0.729l-0.209-0.365h-0.422
        l-0.217,0.364l-0.465-0.807h-0.422l-0.211,0.365l0.465,0.806l-0.582,0.025l-0.211,0.365l0.211,0.365l1.004-0.024l0.691,1.194
        h-1.381l-0.482-0.779h-0.422l-0.209,0.364l0.27,0.415h-0.933l-0.211,0.365l0.211,0.365h0.933l-0.24,0.436l0.209,0.365h0.422
        l0.453-0.801h1.381l-0.691,1.195l-0.859-0.004l-0.209,0.364l0.209,0.366l0.438,0.003l-0.465,0.808l0.211,0.365h0.422
        l0.465-0.808l0.289,0.458h0.42l0.213-0.365l-0.5-0.822l0.689-1.195l0.691,1.195l-0.432,0.764l0.211,0.365h0.422l0.219-0.399
        l0.467,0.808h0.422l0.211-0.365l-0.465-0.808l0.578,0.012l0.211-0.366L26.371,32.3l-1.002-0.01l-0.689-1.195h1.381l0.463,0.815
        h0.422l0.211-0.365l-0.254-0.45h0.932L28.045,30.729z"></path>
                </g>
            </symbol>

            <symbol viewBox="0 0 37 37" id="weatherSymbol43">
                <title>Voimakkaita lumikuuroja</title>
                <g>
                    <polygon fill="#ffa800" points="12.576,4.531 14.29,7.804 17.502,5.978 17.175,9.658 20.866,9.857 18.6,12.779 21.596,14.941 
            18.111,16.171 19.464,19.613 15.865,18.765 15.143,22.389 12.576,19.73 10.007,22.389 9.285,18.765 5.687,19.613 7.039,16.171 
            3.553,14.941 6.551,12.779 4.286,9.857 7.976,9.658 7.648,5.978 10.86,7.804 			"></polygon>
                    <circle fill="#ffa800" stroke="#FFFFFF" stroke-width="1.0144" cx="12.574" cy="13.353" r="4.955">
                    </circle>
                </g>
                <g>
                    <g>
                        <g>
                            <path fill="#FFFFFF" stroke="#424242" d="M27.517,14.171c-1.088-3.08-3.998-5.289-7.43-5.289c-3.424,0-6.328,2.201-7.422,5.27
                c-2.793,0.094-5.029,2.381-5.029,5.196c0,2.873,2.33,5.203,5.203,5.203c1.141,0,2.191-0.371,3.049-0.994
                c1.217,0.773,2.654,1.227,4.199,1.227c1.467,0,2.834-0.408,4.01-1.109c0.826,0.553,1.82,0.877,2.889,0.877
                c2.873,0,5.203-2.33,5.203-5.203C32.188,16.651,30.142,14.437,27.517,14.171z"></path>
                        </g>
                    </g>
                    <g>
                        <path fill-rule="evenodd" clip-rule="evenodd" fill="#219ebd" d="M23.898,30.729l-0.211-0.365h-0.932l0.281-0.502l-0.211-0.365
            h-0.42l-0.494,0.867h-1.379l0.689-1.194l0.957-0.005l0.211-0.365l-0.211-0.365l-0.535,0.004l0.467-0.806l-0.213-0.365h-0.42
            l-0.467,0.807l-0.277-0.48h-0.422l-0.211,0.365l0.49,0.845L19.9,29.999l-0.688-1.195l0.425-0.729l-0.211-0.365h-0.42
            l-0.216,0.364l-0.466-0.807h-0.422l-0.211,0.365l0.466,0.806l-0.582,0.025l-0.212,0.365l0.212,0.365l1.004-0.024l0.688,1.194
            h-1.379l-0.481-0.779h-0.422l-0.21,0.364l0.271,0.415h-0.932l-0.211,0.365l0.211,0.365h0.932l-0.241,0.436l0.209,0.365h0.423
            l0.452-0.801h1.379l-0.688,1.195l-0.859-0.004l-0.211,0.364l0.211,0.366l0.438,0.003l-0.466,0.808l0.211,0.365h0.422
            l0.466-0.808l0.289,0.458h0.419l0.211-0.365l-0.497-0.822L19.9,31.46l0.691,1.195l-0.432,0.764l0.211,0.365h0.422l0.219-0.399
            l0.467,0.808h0.42l0.213-0.365l-0.467-0.808l0.578,0.012l0.211-0.366L22.223,32.3l-1-0.01l-0.689-1.195h1.379l0.465,0.815h0.42
            l0.213-0.365l-0.254-0.45h0.932L23.898,30.729z"></path>
                        <path fill-rule="evenodd" clip-rule="evenodd" fill="#219ebd" d="M32.207,30.729l-0.211-0.365h-0.932l0.283-0.502l-0.211-0.365
            h-0.422l-0.492,0.867h-1.381l0.689-1.194l0.959-0.005l0.209-0.365l-0.209-0.365l-0.535,0.004l0.465-0.806l-0.211-0.365h-0.422
            l-0.467,0.807l-0.277-0.48h-0.422l-0.211,0.365l0.49,0.845l-0.691,1.195l-0.689-1.195l0.426-0.729l-0.209-0.365h-0.422
            l-0.217,0.364l-0.465-0.807h-0.422L26,27.633l0.465,0.806l-0.582,0.025l-0.211,0.365l0.211,0.365l1.004-0.024l0.691,1.194
            h-1.381l-0.482-0.779h-0.422l-0.209,0.364l0.27,0.415h-0.932l-0.211,0.365l0.211,0.365h0.932l-0.24,0.436l0.209,0.365h0.422
            l0.453-0.801h1.381l-0.691,1.195l-0.859-0.004l-0.209,0.364l0.209,0.366l0.438,0.003L26,33.827l0.211,0.365h0.422l0.465-0.808
            l0.289,0.458h0.42l0.213-0.365l-0.5-0.822l0.689-1.195l0.691,1.195l-0.432,0.764l0.211,0.365h0.422l0.219-0.399l0.467,0.808
            h0.422l0.211-0.365l-0.465-0.808l0.578,0.012l0.211-0.366L30.533,32.3l-1.002-0.01l-0.689-1.195h1.381l0.463,0.815h0.422
            l0.211-0.365l-0.254-0.45h0.932L32.207,30.729z"></path>
                        <path fill-rule="evenodd" clip-rule="evenodd" fill="#219ebd" d="M15.612,30.729l-0.211-0.365H14.47l0.282-0.502l-0.212-0.365
            h-0.421l-0.493,0.867h-1.38l0.69-1.194l0.957-0.005l0.211-0.365l-0.211-0.365l-0.535,0.004l0.466-0.806l-0.212-0.365h-0.421
            l-0.466,0.807l-0.277-0.48h-0.422l-0.211,0.365l0.489,0.845l-0.69,1.195l-0.689-1.195l0.426-0.729L11.14,27.71h-0.421
            l-0.216,0.364l-0.466-0.807H9.615l-0.211,0.365l0.466,0.806l-0.582,0.025l-0.212,0.365l0.212,0.365l1.004-0.024l0.689,1.194
            h-1.38L9.12,29.585H8.698l-0.21,0.364l0.271,0.415H7.827l-0.211,0.365l0.211,0.365h0.932L8.518,31.53l0.209,0.365h0.423
            l0.452-0.801h1.38l-0.689,1.195l-0.859-0.004L9.222,32.65l0.211,0.366L9.87,33.02l-0.466,0.808l0.211,0.365h0.422l0.466-0.808
            l0.289,0.458h0.42l0.211-0.365l-0.498-0.822l0.689-1.195l0.69,1.195l-0.431,0.764l0.21,0.365h0.422l0.22-0.399l0.466,0.808
            h0.421l0.212-0.365l-0.466-0.808l0.578,0.012l0.211-0.366L13.937,32.3l-1-0.01l-0.69-1.195h1.38l0.464,0.815h0.421l0.212-0.365
            l-0.253-0.45h0.932L15.612,30.729z"></path>
                    </g>
                </g>
            </symbol>

            <symbol viewBox="0 0 37 37" id="weatherSymbol51">
                <title>Heikkoa lumisadetta</title>
                <g>
                    <g>
                        <path fill="#FFFFFF" stroke="#424242" d="M26.104,14.171c-1.088-3.08-3.998-5.289-7.43-5.289c-3.424,0-6.328,2.201-7.422,5.27
            c-2.793,0.094-5.029,2.381-5.029,5.196c0,2.873,2.33,5.203,5.203,5.203c1.141,0,2.191-0.371,3.049-0.994
            c1.217,0.773,2.654,1.227,4.199,1.227c1.467,0,2.834-0.408,4.01-1.109c0.826,0.553,1.82,0.877,2.889,0.877
            c2.873,0,5.203-2.33,5.203-5.203C30.776,16.651,28.729,14.437,26.104,14.171z"></path>
                    </g>
                </g>
                <g>
                    <path fill-rule="evenodd" clip-rule="evenodd" fill="#219ebd" d="M22.486,30.729l-0.211-0.365h-0.932l0.281-0.502l-0.211-0.365
            h-0.42L20.5,30.364h-1.379l0.689-1.194l0.957-0.005l0.211-0.365l-0.211-0.365l-0.535,0.004l0.467-0.806l-0.213-0.365h-0.42
            L19.6,28.074l-0.277-0.48H18.9l-0.211,0.365l0.49,0.845l-0.691,1.195L17.8,28.804l0.425-0.729l-0.211-0.365h-0.42l-0.216,0.364
            l-0.466-0.807H16.49l-0.211,0.365l0.466,0.806l-0.582,0.025l-0.212,0.365l0.212,0.365l1.004-0.024l0.688,1.194h-1.379
            l-0.481-0.779h-0.422l-0.21,0.364l0.271,0.415h-0.932l-0.211,0.365l0.211,0.365h0.932l-0.241,0.436l0.209,0.365h0.423
            l0.452-0.801h1.379l-0.688,1.195l-0.859-0.004l-0.211,0.364l0.211,0.366l0.438,0.003l-0.466,0.808l0.211,0.365h0.422
            l0.466-0.808l0.289,0.458h0.419l0.211-0.365L17.8,32.655l0.688-1.195l0.691,1.195l-0.432,0.764l0.211,0.365h0.422l0.219-0.399
            l0.467,0.808h0.42l0.213-0.365l-0.467-0.808l0.578,0.012l0.211-0.366L20.811,32.3l-1-0.01l-0.689-1.195H20.5l0.465,0.815h0.42
            l0.213-0.365l-0.254-0.45h0.932L22.486,30.729z"></path>
                </g>
            </symbol>


            <symbol viewBox="0 0 37 37" id="weatherSymbol52">
                <title>Lumisadetta</title>
                <g>
                    <g>
                        <path fill="#FFFFFF" stroke="#424242" d="M26.104,14.171c-1.088-3.08-3.998-5.289-7.43-5.289c-3.424,0-6.328,2.201-7.422,5.27
            c-2.793,0.094-5.029,2.381-5.029,5.196c0,2.873,2.33,5.203,5.203,5.203c1.141,0,2.191-0.371,3.049-0.994
            c1.217,0.773,2.654,1.227,4.199,1.227c1.467,0,2.834-0.408,4.01-1.109c0.826,0.553,1.82,0.877,2.889,0.877
            c2.873,0,5.203-2.33,5.203-5.203C30.776,16.651,28.729,14.437,26.104,14.171z"></path>
                    </g>
                </g>
                <g>
                    <path fill-rule="evenodd" clip-rule="evenodd" fill="#219ebd" d="M18.343,30.729l-0.211-0.365h-0.931l0.281-0.502l-0.211-0.365
            h-0.42l-0.494,0.867h-1.379l0.689-1.194l0.957-0.005l0.211-0.365l-0.211-0.365l-0.535,0.004l0.467-0.806l-0.213-0.365h-0.42
            l-0.467,0.807l-0.277-0.48h-0.422l-0.211,0.365l0.49,0.845l-0.691,1.195l-0.688-1.195l0.425-0.729l-0.211-0.365h-0.42
            l-0.216,0.364l-0.466-0.807h-0.422l-0.211,0.365l0.466,0.806l-0.582,0.025l-0.212,0.365l0.212,0.365l1.004-0.024l0.688,1.194
            h-1.379l-0.481-0.779H11.43l-0.21,0.364l0.271,0.415h-0.932l-0.211,0.365l0.211,0.365h0.932L11.25,31.53l0.209,0.365h0.423
            l0.452-0.801h1.379l-0.688,1.195l-0.859-0.004l-0.211,0.364l0.211,0.366l0.438,0.003l-0.466,0.808l0.211,0.365h0.422
            l0.466-0.808l0.289,0.458h0.419l0.211-0.365l-0.497-0.822l0.688-1.195l0.691,1.195l-0.432,0.764l0.211,0.365h0.422l0.219-0.399
            l0.467,0.808h0.42l0.213-0.365l-0.467-0.808l0.578,0.012l0.211-0.366L16.667,32.3l-1-0.01l-0.689-1.195h1.379l0.465,0.815h0.42
            l0.213-0.365l-0.254-0.45h0.931L18.343,30.729z"></path>
                    <path fill-rule="evenodd" clip-rule="evenodd" fill="#219ebd" d="M26.652,30.729l-0.211-0.365H25.51l0.283-0.502l-0.211-0.365
            H25.16l-0.492,0.867h-1.381l0.689-1.194l0.959-0.005l0.209-0.365l-0.209-0.365L24.4,28.438l0.465-0.806l-0.211-0.365h-0.422
            l-0.467,0.807l-0.277-0.48h-0.422l-0.211,0.365l0.49,0.845l-0.691,1.195l-0.689-1.195l0.426-0.729l-0.209-0.365H21.76
            l-0.217,0.364l-0.465-0.807h-0.422l-0.211,0.365l0.465,0.806l-0.582,0.025l-0.211,0.365l0.211,0.365l1.004-0.024l0.691,1.194
            h-1.381l-0.482-0.779h-0.422l-0.209,0.364l0.27,0.415h-0.933l-0.211,0.365l0.211,0.365h0.933l-0.24,0.436l0.209,0.365h0.422
            l0.453-0.801h1.381l-0.691,1.195l-0.859-0.004l-0.209,0.364l0.209,0.366l0.438,0.003l-0.465,0.808l0.211,0.365h0.422
            l0.465-0.808l0.289,0.458h0.42l0.213-0.365l-0.5-0.822l0.689-1.195l0.691,1.195l-0.432,0.764l0.211,0.365h0.422l0.219-0.399
            l0.467,0.808h0.422l0.211-0.365L24.4,33.02l0.578,0.012l0.211-0.366L24.979,32.3l-1.002-0.01l-0.689-1.195h1.381l0.463,0.815
            h0.422l0.211-0.365l-0.254-0.45h0.932L26.652,30.729z"></path>
                </g>
            </symbol>


            <symbol viewBox="0 0 37 37" id="weatherSymbol53">
                <title>Voimakasta lumisadetta</title>
                <g>
                    <g>
                        <path fill="#FFFFFF" stroke="#424242" d="M26.105,14.171c-1.088-3.08-3.998-5.289-7.43-5.289c-3.424,0-6.328,2.201-7.422,5.27
            c-2.793,0.094-5.029,2.381-5.029,5.196c0,2.873,2.33,5.203,5.203,5.203c1.141,0,2.191-0.371,3.049-0.994
            c1.217,0.773,2.654,1.227,4.199,1.227c1.467,0,2.834-0.408,4.01-1.109c0.826,0.553,1.82,0.877,2.889,0.877
            c2.873,0,5.203-2.33,5.203-5.203C30.777,16.651,28.73,14.437,26.105,14.171z"></path>
                    </g>
                </g>
                <g>
                    <path fill-rule="evenodd" clip-rule="evenodd" fill="#219ebd" d="M22.486,30.729l-0.211-0.365h-0.932l0.281-0.502l-0.211-0.365
        h-0.42L20.5,30.364h-1.379l0.689-1.194l0.957-0.005l0.211-0.365l-0.211-0.365l-0.535,0.004l0.467-0.806l-0.213-0.365h-0.42
        L19.6,28.074l-0.277-0.48h-0.421l-0.211,0.365l0.49,0.845l-0.691,1.195L17.8,28.804l0.425-0.729l-0.211-0.365h-0.42
        l-0.216,0.364l-0.466-0.807h-0.422l-0.211,0.365l0.466,0.806l-0.582,0.025l-0.212,0.365l0.212,0.365l1.004-0.024l0.688,1.194
        h-1.379l-0.481-0.779h-0.422l-0.21,0.364l0.271,0.415h-0.932l-0.211,0.365l0.211,0.365h0.932l-0.241,0.436l0.209,0.365h0.423
        l0.452-0.801h1.379l-0.688,1.195l-0.859-0.004l-0.211,0.364l0.211,0.366l0.438,0.003l-0.466,0.808l0.211,0.365h0.422
        l0.466-0.808l0.289,0.458h0.419l0.211-0.365L17.8,32.655l0.688-1.195l0.691,1.195l-0.431,0.764l0.211,0.365h0.421l0.219-0.399
        l0.467,0.808h0.42l0.213-0.365l-0.467-0.808l0.578,0.012l0.211-0.366L20.811,32.3l-1-0.01l-0.689-1.195H20.5l0.465,0.815h0.42
        l0.213-0.365l-0.254-0.45h0.932L22.486,30.729z"></path>
                    <path fill-rule="evenodd" clip-rule="evenodd" fill="#219ebd" d="M30.795,30.729l-0.211-0.365h-0.932l0.283-0.502l-0.211-0.365
        h-0.422l-0.492,0.867H27.43l0.689-1.194l0.959-0.005l0.209-0.365l-0.209-0.365l-0.535,0.004l0.465-0.806l-0.211-0.365h-0.422
        l-0.467,0.807l-0.277-0.48h-0.422l-0.211,0.365l0.49,0.845l-0.691,1.195l-0.689-1.195l0.426-0.729l-0.209-0.365h-0.422
        l-0.217,0.364l-0.465-0.807h-0.422l-0.211,0.365l0.465,0.806l-0.582,0.025l-0.211,0.365l0.211,0.365l1.004-0.024l0.691,1.194
        h-1.381l-0.482-0.779h-0.422l-0.209,0.364l0.27,0.415H23.01l-0.211,0.365l0.211,0.365h0.932l-0.24,0.436l0.209,0.365h0.422
        l0.453-0.801h1.381l-0.691,1.195l-0.859-0.004l-0.209,0.364l0.209,0.366l0.438,0.003l-0.465,0.808l0.211,0.365h0.422
        l0.465-0.808l0.289,0.458h0.42l0.213-0.365l-0.5-0.822l0.689-1.195l0.691,1.195l-0.432,0.764l0.211,0.365h0.422l0.219-0.399
        l0.467,0.808h0.422l0.211-0.365l-0.465-0.808l0.578,0.012l0.211-0.366L29.121,32.3l-1.002-0.01l-0.689-1.195h1.381l0.463,0.815
        h0.422l0.211-0.365l-0.254-0.45h0.932L30.795,30.729z"></path>
                    <path fill-rule="evenodd" clip-rule="evenodd" fill="#219ebd" d="M14.201,30.729l-0.211-0.365h-0.932l0.282-0.502l-0.212-0.365
        h-0.421l-0.493,0.867h-1.38l0.69-1.194l0.957-0.005l0.211-0.365l-0.211-0.365l-0.535,0.004l0.466-0.806l-0.212-0.365H11.78
        l-0.466,0.807l-0.277-0.48h-0.422l-0.211,0.365l0.489,0.845l-0.69,1.195l-0.689-1.195l0.426-0.729L9.728,27.71H9.307
        l-0.216,0.364l-0.466-0.807H8.204l-0.211,0.365l0.466,0.806l-0.582,0.025l-0.212,0.365l0.212,0.365L8.88,29.17l0.689,1.194H8.19
        l-0.481-0.779H7.287l-0.21,0.364l0.271,0.415H6.416l-0.211,0.365l0.211,0.365h0.932L7.106,31.53l0.209,0.365h0.423l0.452-0.801
        h1.38L8.88,32.29l-0.859-0.004L7.81,32.65l0.211,0.366l0.438,0.003l-0.466,0.808l0.211,0.365h0.422l0.466-0.808l0.289,0.458H9.8
        l0.211-0.365l-0.498-0.822l0.689-1.195l0.69,1.195l-0.431,0.764l0.21,0.365h0.422l0.22-0.399l0.466,0.808h0.421l0.212-0.365
        l-0.466-0.808l0.578,0.012l0.211-0.366L12.525,32.3l-1-0.01l-0.69-1.195h1.38l0.464,0.815h0.421l0.212-0.365l-0.253-0.45h0.932
        L14.201,30.729z"></path>
                </g>
            </symbol>

            <symbol viewBox="0 0 37 37" id="weatherSymbol61">
                <title>Ukkoskuuroja</title>
                <g>
                    <polygon fill="#ffa800" points="12.576,4.531 14.29,7.804 17.502,5.978 17.175,9.658 20.866,9.857 18.6,12.779 21.596,14.941 
        18.111,16.171 19.464,19.613 15.865,18.765 15.143,22.389 12.576,19.73 10.007,22.389 9.285,18.765 5.687,19.613 7.039,16.171 
        3.553,14.941 6.551,12.779 4.286,9.857 7.976,9.658 7.648,5.978 10.86,7.804 			"></polygon>
                    <circle fill="#ffa800" stroke="#FFFFFF" stroke-width="1.0144" cx="12.574" cy="13.353" r="4.955">
                    </circle>
                </g>
                <g>
                    <path fill="#FFFFFF" stroke="#424242" d="M27.497,14.171c-1.088-3.08-3.998-5.289-7.43-5.289c-3.424,0-6.328,2.201-7.422,5.27
        c-2.793,0.094-5.029,2.381-5.029,5.195c0,2.873,2.33,5.203,5.203,5.203c1.141,0,2.191-0.371,3.049-0.994
        c1.217,0.773,2.654,1.227,4.199,1.227c1.467,0,2.834-0.408,4.01-1.109c0.826,0.553,1.82,0.877,2.889,0.877
        c2.873,0,5.203-2.33,5.203-5.203C32.169,16.651,30.122,14.437,27.497,14.171z"></path>
                    <polygon fill="#ffa800" points="27.168,15.104 17.973,17.046 13.103,25.835 16.262,23.425 12.617,30.001 23.289,20.28 
        19.804,20.724 			"></polygon>
                </g>
            </symbol>

            <symbol viewBox="0 0 37 37" id="weatherSymbol62">
                <title>Voimakkaita ukkoskuuroja</title>
                <g>
                    <polygon fill="#ffa800" points="12.576,4.531 14.29,7.804 17.502,5.978 17.175,9.658 20.866,9.857 18.6,12.779 21.596,14.941 
            18.111,16.171 19.464,19.613 15.865,18.765 15.143,22.389 12.576,19.73 10.007,22.389 9.285,18.765 5.687,19.613 7.039,16.171 
            3.553,14.941 6.551,12.779 4.286,9.857 7.976,9.658 7.648,5.978 10.86,7.804"></polygon>
                    <circle fill="#ffa800" stroke="#FFFFFF" stroke-width="1.0144" cx="12.574" cy="13.353" r="4.955">
                    </circle>
                </g>
                <g>
                    <path fill="#FFFFFF" stroke="#424242" d="M27.497,14.169c-1.088-3.08-3.998-5.287-7.43-5.287c-3.424,0-6.328,2.199-7.422,5.27
            c-2.793,0.092-5.029,2.378-5.029,5.193c0,2.873,2.33,5.203,5.203,5.203c1.141,0,2.191-0.371,3.049-0.994
            c1.217,0.773,2.654,1.229,4.199,1.229c1.467,0,2.834-0.41,4.01-1.111c0.826,0.555,1.82,0.877,2.889,0.877
            c2.873,0,5.203-2.33,5.203-5.203C32.169,16.651,30.122,14.435,27.497,14.169z"></path>
                    <g>
                        <polygon fill="#ffa800" points="28.981,19.806 19.786,21.749 14.915,30.538 18.075,28.128 14.431,34.702 25.103,24.981 
            21.616,25.425"></polygon>
                        <polygon fill="#ffa800" points="25.354,12.552 16.159,14.495 11.288,23.282 14.448,20.872 10.804,27.448 21.476,17.727 
            17.989,18.17"></polygon>
                    </g>
                </g>
            </symbol>

            <symbol viewBox="0 0 37 37" id="weatherSymbol63">
                <title>Ukkosta</title>
                <g>
                    <g>
                        <path fill="#FFFFFF" stroke="#424242" d="M26.104,14.171c-1.088-3.08-3.998-5.289-7.43-5.289c-3.424,0-6.328,2.201-7.422,5.27
                c-2.793,0.094-5.029,2.381-5.029,5.195c0,2.873,2.33,5.203,5.203,5.203c1.141,0,2.191-0.371,3.049-0.994
                c1.217,0.773,2.654,1.227,4.199,1.227c1.467,0,2.834-0.408,4.01-1.109c0.826,0.553,1.82,0.877,2.889,0.877
                c2.873,0,5.203-2.33,5.203-5.203C30.776,16.651,28.729,14.437,26.104,14.171z"></path>
                        <polygon fill="#ffa800" points="25.775,15.104 16.58,17.046 11.71,25.835 14.869,23.425 11.225,30.001 21.896,20.28 
                18.411,20.724"></polygon>
                    </g>
                </g>
            </symbol>

            <symbol viewBox="0 0 37 37" id="weatherSymbol64">
                <title>Voimakasta ukkosta</title>
                <path fill="#FFFFFF" stroke="#424242" d="M26.104,14.169c-1.088-3.08-3.998-5.287-7.43-5.287c-3.424,0-6.328,2.199-7.422,5.27
        c-2.793,0.092-5.029,2.378-5.029,5.193c0,2.873,2.33,5.203,5.203,5.203c1.141,0,2.191-0.371,3.049-0.994
        c1.217,0.773,2.654,1.229,4.199,1.229c1.467,0,2.834-0.41,4.01-1.111c0.826,0.555,1.82,0.877,2.889,0.877
        c2.873,0,5.203-2.33,5.203-5.203C30.776,16.651,28.729,14.435,26.104,14.169z"></path>
                <g>
                    <polygon fill="#ffa800" points="27.589,19.806 18.394,21.749 13.522,30.538 16.683,28.128 13.038,34.702 23.71,24.981 
        20.224,25.425 					"></polygon>
                    <polygon fill="#ffa800" points="23.962,12.552 14.767,14.495 9.896,23.282 13.056,20.872 9.411,27.448 20.083,17.727 
        16.597,18.17 					"></polygon>
                </g>
            </symbol>

            <symbol viewBox="0 0 37 37" id="weatherSymbol71">
                <title>Heikkoja räntäkuuroja</title>
                <g>
                    <polygon fill="#ffa800" points="12.576,4.531 14.29,7.804 17.502,5.978 17.175,9.658 20.866,9.857 18.6,12.779 21.596,14.941 
            18.111,16.171 19.464,19.613 15.865,18.765 15.143,22.389 12.576,19.73 10.007,22.389 9.285,18.765 5.687,19.613 7.039,16.171 
            3.553,14.941 6.551,12.779 4.286,9.857 7.976,9.658 7.648,5.978 10.86,7.804 			"></polygon>
                    <circle fill="#ffa800" stroke="#FFFFFF" stroke-width="1.0144" cx="12.574" cy="13.353" r="4.955">
                    </circle>
                </g>
                <g>
                    <path fill="#219ebd" d="M22.307,31.775c0,1.334-1.081,2.414-2.415,2.414c-1.333,0-2.415-1.08-2.415-2.414
            s2.598-5.258,2.598-5.238C20.075,26.566,22.307,30.441,22.307,31.775z"></path>
                    <path fill="#FFFFFF" stroke="#424242" d="M27.496,14.171c-1.088-3.08-3.998-5.289-7.43-5.289c-3.423,0-6.327,2.201-7.421,5.27
            c-2.793,0.094-5.029,2.381-5.029,5.196c0,2.873,2.33,5.203,5.203,5.203c1.141,0,2.191-0.371,3.049-0.994
            c1.217,0.773,2.654,1.227,4.198,1.227c1.467,0,2.834-0.408,4.01-1.109c0.826,0.553,1.82,0.877,2.889,0.877
            c2.873,0,5.203-2.33,5.203-5.203C32.168,16.652,30.121,14.437,27.496,14.171z"></path>
                    <path fill-rule="evenodd" clip-rule="evenodd" fill="#219ebd" d="M23.89,17.997l-0.211-0.364h-0.932l0.281-0.502l-0.211-0.365
            h-0.421l-0.493,0.867h-1.38l0.69-1.194l0.957-0.006l0.211-0.364l-0.211-0.365l-0.535,0.004l0.466-0.806l-0.212-0.365h-0.421
            l-0.466,0.807l-0.277-0.48h-0.422l-0.211,0.365l0.489,0.845l-0.69,1.195l-0.689-1.195l0.426-0.729l-0.211-0.365h-0.42
            l-0.216,0.364l-0.466-0.807h-0.422l-0.211,0.365l0.466,0.806l-0.582,0.025l-0.212,0.364l0.212,0.365l1.004-0.023l0.689,1.194
            h-1.379l-0.481-0.78h-0.422l-0.21,0.365l0.271,0.415h-0.932l-0.211,0.364l0.211,0.365h0.932l-0.241,0.436l0.209,0.365h0.423
            l0.452-0.801h1.379l-0.689,1.195l-0.859-0.004L17.5,19.918l0.211,0.365l0.438,0.004l-0.466,0.807l0.211,0.365h0.422l0.466-0.807
            l0.289,0.457h0.42l0.211-0.365l-0.498-0.822l0.689-1.195l0.69,1.195l-0.431,0.766l0.21,0.365h0.422l0.22-0.4l0.466,0.807h0.421
            l0.212-0.365l-0.466-0.807l0.578,0.012l0.211-0.365l-0.211-0.365l-1-0.012l-0.69-1.195h1.38l0.464,0.816h0.421L23,18.812
            l-0.253-0.451h0.932L23.89,17.997z"></path>
                </g>
            </symbol>

            <symbol viewBox="0 0 37 37" id="weatherSymbol72">
                <title>Räntäkuuroja</title>
                <g>
                    <polygon fill="#ffa800" points="12.576,4.531 14.29,7.804 17.502,5.978 17.175,9.658 20.866,9.857 18.6,12.779 21.596,14.941 
            18.111,16.171 19.464,19.613 15.865,18.765 15.143,22.389 12.576,19.73 10.007,22.389 9.285,18.765 5.687,19.613 7.039,16.171 
            3.553,14.941 6.551,12.779 4.286,9.857 7.976,9.658 7.648,5.978 10.86,7.804 			"></polygon>
                    <circle fill="#ffa800" stroke="#FFFFFF" stroke-width="1.0144" cx="12.574" cy="13.353" r="4.955">
                    </circle>
                </g>
                <g>
                    <g>
                        <path fill="#219ebd" d="M19.098,31.775c0,1.334-1.081,2.414-2.415,2.414c-1.333,0-2.415-1.08-2.415-2.414
                s2.599-5.258,2.599-5.238C16.867,26.566,19.098,30.441,19.098,31.775z"></path>
                        <path fill="#219ebd" d="M25.517,31.775c0,1.334-1.081,2.414-2.415,2.414c-1.333,0-2.414-1.08-2.414-2.414
                s2.597-5.258,2.597-5.238C23.284,26.566,25.517,30.441,25.517,31.775z"></path>
                    </g>
                    <path fill="#FFFFFF" stroke="#424242" d="M27.496,14.171c-1.088-3.08-3.998-5.289-7.43-5.289c-3.423,0-6.327,2.201-7.421,5.27
            c-2.793,0.094-5.029,2.381-5.029,5.196c0,2.873,2.33,5.203,5.203,5.203c1.141,0,2.191-0.371,3.049-0.994
            c1.217,0.773,2.654,1.227,4.198,1.227c1.467,0,2.834-0.408,4.01-1.109c0.826,0.553,1.82,0.877,2.889,0.877
            c2.873,0,5.203-2.33,5.203-5.203C32.168,16.652,30.121,14.437,27.496,14.171z"></path>
                    <g>
                        <path fill-rule="evenodd" clip-rule="evenodd" fill="#219ebd" d="M18.958,18.997l-0.211-0.364h-0.932l0.281-0.502l-0.211-0.365
                h-0.421l-0.493,0.867h-1.38l0.69-1.194l0.957-0.006l0.211-0.364l-0.211-0.365l-0.535,0.004l0.466-0.806l-0.212-0.365h-0.421
                l-0.466,0.807l-0.277-0.48h-0.422l-0.211,0.365l0.489,0.845l-0.69,1.195l-0.689-1.195l0.426-0.729l-0.211-0.365h-0.421
                l-0.216,0.364l-0.466-0.807H12.96l-0.211,0.365l0.466,0.806l-0.582,0.025l-0.212,0.364l0.212,0.365l1.004-0.023l0.689,1.194
                h-1.38l-0.481-0.78h-0.422l-0.21,0.365l0.271,0.415h-0.932l-0.211,0.364l0.211,0.365h0.932l-0.241,0.436l0.209,0.365h0.423
                l0.452-0.801h1.38l-0.689,1.195l-0.859-0.004l-0.211,0.365l0.211,0.365l0.438,0.004l-0.466,0.807l0.211,0.365h0.422l0.466-0.807
                l0.289,0.457h0.42l0.211-0.365l-0.498-0.822l0.689-1.195l0.69,1.195l-0.431,0.766l0.21,0.365h0.422l0.22-0.4l0.466,0.807h0.421
                l0.212-0.365l-0.466-0.807l0.578,0.012l0.211-0.365l-0.211-0.365l-1-0.012l-0.69-1.195h1.38l0.464,0.816h0.421l0.212-0.365
                l-0.253-0.451h0.932L18.958,18.997z"></path>
                        <path fill-rule="evenodd" clip-rule="evenodd" fill="#219ebd" d="M28.823,18.997l-0.211-0.364h-0.932l0.282-0.502l-0.211-0.365
                H27.33l-0.492,0.867h-1.38l0.689-1.194l0.958-0.006l0.21-0.364l-0.21-0.365l-0.535,0.004l0.465-0.806l-0.211-0.365h-0.422
                l-0.466,0.807l-0.277-0.48h-0.422l-0.211,0.365l0.489,0.845l-0.69,1.195l-0.689-1.195l0.426-0.729l-0.21-0.365H23.93
                l-0.216,0.364l-0.466-0.807h-0.421l-0.212,0.365l0.466,0.806l-0.582,0.025l-0.211,0.364l0.211,0.365l1.004-0.023l0.69,1.194
                h-1.38l-0.482-0.78h-0.422l-0.21,0.365l0.271,0.415h-0.932l-0.211,0.364l0.211,0.365h0.932l-0.241,0.436l0.21,0.365h0.422
                l0.453-0.801h1.38l-0.69,1.195l-0.859-0.004l-0.21,0.365l0.21,0.365l0.438,0.004l-0.466,0.807l0.212,0.365h0.421l0.466-0.807
                l0.289,0.457h0.42l0.212-0.365l-0.499-0.822l0.689-1.195l0.69,1.195l-0.431,0.766l0.211,0.365h0.421l0.22-0.4l0.466,0.807h0.422
                l0.211-0.365l-0.465-0.807l0.578,0.012l0.211-0.365l-0.211-0.365l-1.001-0.012l-0.689-1.195h1.38l0.463,0.816h0.422l0.211-0.365
                l-0.253-0.451h0.932L28.823,18.997z"></path>
                    </g>
                </g>
            </symbol>

            <symbol viewBox="0 0 37 37" id="weatherSymbol73">
                <title>Voimakkaita räntäkuuroja</title>
                <g>
                    <polygon fill="#ffa800" points="12.576,4.531 14.29,7.804 17.502,5.978 17.175,9.658 20.866,9.857 18.6,12.779 21.596,14.941 
                18.111,16.171 19.464,19.613 15.865,18.765 15.143,22.389 12.576,19.73 10.007,22.389 9.285,18.765 5.687,19.613 7.039,16.171 
                3.553,14.941 6.551,12.779 4.286,9.857 7.976,9.658 7.648,5.978 10.86,7.804 			"></polygon>
                    <circle fill="#ffa800" stroke="#FFFFFF" stroke-width="1.0144" cx="12.574" cy="13.353" r="4.955">
                    </circle>
                </g>
                <g>
                    <g>
                        <path fill="#219ebd" d="M22.456,31.775c0,1.334-1.081,2.414-2.415,2.414c-1.333,0-2.415-1.08-2.415-2.414
                s2.599-5.258,2.599-5.238C20.225,26.566,22.456,30.441,22.456,31.775z"></path>
                        <path fill="#219ebd" d="M28.875,31.775c0,1.334-1.081,2.414-2.415,2.414c-1.333,0-2.414-1.08-2.414-2.414
                s2.597-5.258,2.597-5.238C26.643,26.566,28.875,30.441,28.875,31.775z"></path>
                        <path fill="#219ebd" d="M15.74,31.775c0,1.334-1.08,2.414-2.414,2.414s-2.415-1.08-2.415-2.414s2.598-5.258,2.598-5.238
                C13.509,26.566,15.74,30.441,15.74,31.775z"></path>
                    </g>
                    <g>
                        <path fill="#FFFFFF" stroke="#424242" d="M27.497,14.171c-1.088-3.08-3.998-5.289-7.43-5.289c-3.424,0-6.328,2.201-7.422,5.27
                c-2.793,0.094-5.029,2.381-5.029,5.196c0,2.873,2.33,5.203,5.203,5.203c1.141,0,2.191-0.371,3.049-0.994
                c1.217,0.773,2.654,1.227,4.199,1.227c1.467,0,2.834-0.408,4.01-1.109c0.826,0.553,1.82,0.877,2.889,0.877
                c2.873,0,5.203-2.33,5.203-5.203C32.169,16.651,30.122,14.437,27.497,14.171z"></path>
                        <g>
                            <path fill-rule="evenodd" clip-rule="evenodd" fill="#219ebd" d="M17.721,19.013l-0.211-0.365h-0.932l0.281-0.502l-0.211-0.365
                    h-0.421l-0.493,0.867h-1.38l0.69-1.194l0.957-0.006l0.211-0.364l-0.211-0.365l-0.535,0.004l0.466-0.806l-0.212-0.365H15.3
                    l-0.466,0.807l-0.277-0.48h-0.422l-0.211,0.365l0.489,0.845l-0.69,1.195l-0.689-1.195l0.426-0.729l-0.211-0.365h-0.421
                    l-0.216,0.364l-0.466-0.807h-0.422l-0.211,0.365l0.466,0.806l-0.582,0.025l-0.212,0.364l0.212,0.365l1.004-0.023l0.689,1.194
                    h-1.38l-0.481-0.78h-0.422l-0.21,0.365l0.271,0.415H9.936l-0.211,0.365l0.211,0.365h0.932l-0.241,0.436l0.209,0.365h0.423
                    l0.452-0.801h1.38L12.4,20.573l-0.859-0.004l-0.211,0.365l0.211,0.365l0.438,0.004l-0.466,0.807l0.211,0.365h0.422l0.466-0.807
                    l0.289,0.457h0.42l0.211-0.365l-0.498-0.822l0.689-1.195l0.69,1.195l-0.431,0.765l0.21,0.365h0.422l0.22-0.399l0.466,0.807
                    h0.421l0.212-0.365l-0.466-0.807l0.578,0.012l0.211-0.366l-0.211-0.365l-1-0.011l-0.69-1.195h1.38l0.464,0.816h0.421
                    l0.212-0.365l-0.253-0.451h0.932L17.721,19.013z"></path>
                            <path fill-rule="evenodd" clip-rule="evenodd" fill="#219ebd" d="M30.061,19.399l-0.211-0.364h-0.932l0.282-0.502l-0.211-0.365
                    h-0.422l-0.492,0.868h-1.38l0.689-1.195l0.958-0.006l0.21-0.364l-0.21-0.365l-0.535,0.004l0.465-0.806l-0.211-0.365H27.64
                    l-0.466,0.807l-0.277-0.48h-0.422l-0.211,0.365l0.489,0.845l-0.69,1.195l-0.689-1.195l0.426-0.729l-0.21-0.365h-0.422
                    l-0.216,0.364l-0.466-0.807h-0.421l-0.212,0.365l0.466,0.806l-0.582,0.025l-0.211,0.364l0.211,0.365l1.004-0.023l0.69,1.195
                    h-1.38l-0.482-0.781h-0.422l-0.21,0.365l0.271,0.416h-0.932l-0.211,0.364l0.211,0.365h0.932L22.966,20.2l0.21,0.365h0.422
                    l0.453-0.801h1.38l-0.69,1.195l-0.859-0.004l-0.21,0.365l0.21,0.365l0.438,0.004l-0.466,0.807l0.212,0.365h0.421l0.466-0.807
                    l0.289,0.457h0.42l0.212-0.365l-0.499-0.822l0.689-1.195l0.69,1.195l-0.431,0.765l0.211,0.365h0.421l0.22-0.399l0.466,0.807
                    h0.422l0.211-0.365l-0.465-0.807l0.578,0.012l0.211-0.366l-0.211-0.365l-1.001-0.011l-0.689-1.195h1.38l0.463,0.816h0.422
                    l0.211-0.365l-0.253-0.451h0.932L30.061,19.399z"></path>
                            <path fill-rule="evenodd" clip-rule="evenodd" fill="#219ebd" d="M24.155,14.264L23.944,13.9h-0.932l0.282-0.502l-0.211-0.365
                    h-0.422L22.17,13.9h-1.38l0.689-1.195l0.958-0.005l0.21-0.364l-0.21-0.365l-0.535,0.004l0.465-0.807l-0.211-0.365h-0.422
                    l-0.466,0.807l-0.277-0.48h-0.422l-0.211,0.365l0.489,0.846l-0.69,1.195l-0.689-1.195l0.426-0.729l-0.21-0.365h-0.422
                    l-0.216,0.363l-0.466-0.807h-0.421l-0.212,0.365l0.466,0.807L17.831,12l-0.211,0.364l0.211,0.365l1.004-0.024l0.69,1.195h-1.38
                    l-0.482-0.78h-0.422l-0.21,0.364l0.271,0.416H16.37l-0.211,0.364l0.211,0.365h0.932l-0.241,0.436l0.21,0.365h0.422l0.453-0.801
                    h1.38l-0.69,1.195l-0.859-0.004l-0.21,0.364l0.21,0.366l0.438,0.003l-0.466,0.808l0.212,0.365h0.421l0.466-0.808l0.289,0.458
                    h0.42l0.212-0.365l-0.499-0.822l0.689-1.195l0.69,1.195l-0.431,0.765l0.211,0.365h0.421l0.22-0.4l0.466,0.808h0.422
                    l0.211-0.365l-0.465-0.808l0.578,0.012l0.211-0.365l-0.211-0.365l-1.001-0.011l-0.689-1.195h1.38l0.463,0.815h0.422
                    l0.211-0.365l-0.253-0.45h0.932L24.155,14.264z"></path>
                        </g>
                    </g>
                </g>
            </symbol>

            <symbol viewBox="0 0 37 37" id="weatherSymbol81">
                <title>Heikkoa räntäsadetta</title>
                <path fill="#219ebd" d="M20.914,31.775c0,1.334-1.08,2.414-2.415,2.414c-1.333,0-2.415-1.08-2.415-2.414s2.598-5.258,2.598-5.238
        C18.683,26.566,20.914,30.441,20.914,31.775z"></path>
                <path fill="#FFFFFF" stroke="#424242" d="M26.104,14.171c-1.088-3.08-3.998-5.289-7.429-5.289c-3.423,0-6.327,2.201-7.421,5.27
        c-2.793,0.094-5.029,2.381-5.029,5.196c0,2.873,2.33,5.203,5.203,5.203c1.141,0,2.191-0.371,3.049-0.994
        c1.217,0.773,2.654,1.227,4.198,1.227c1.466,0,2.833-0.408,4.009-1.109c0.826,0.553,1.82,0.877,2.889,0.877
        c2.873,0,5.203-2.33,5.203-5.203C30.775,16.652,28.729,14.437,26.104,14.171z"></path>
                <path fill-rule="evenodd" clip-rule="evenodd" fill="#219ebd" d="M22.498,17.997l-0.211-0.364h-0.932l0.281-0.502l-0.211-0.365
        h-0.422l-0.492,0.867h-1.381l0.691-1.194l0.957-0.006l0.211-0.364l-0.211-0.365l-0.535,0.004l0.465-0.806l-0.211-0.365h-0.422
        l-0.465,0.807l-0.277-0.48h-0.422l-0.211,0.365l0.489,0.845l-0.69,1.195l-0.689-1.195l0.426-0.729l-0.211-0.365h-0.42
        l-0.216,0.364l-0.466-0.807h-0.422l-0.211,0.365l0.466,0.806l-0.582,0.025l-0.212,0.364l0.212,0.365l1.004-0.023l0.689,1.194
        h-1.379l-0.481-0.78h-0.422l-0.21,0.365l0.271,0.415h-0.932l-0.211,0.364l0.211,0.365h0.932l-0.241,0.436l0.209,0.365h0.423
        l0.452-0.801h1.379l-0.689,1.195l-0.859-0.004l-0.211,0.365l0.211,0.365l0.438,0.004l-0.466,0.807l0.211,0.365h0.422l0.466-0.807
        l0.289,0.457h0.42l0.211-0.365l-0.498-0.822l0.689-1.195l0.69,1.195l-0.43,0.766l0.21,0.365h0.421l0.221-0.4l0.465,0.807h0.422
        l0.211-0.365l-0.465-0.807l0.578,0.012l0.211-0.365l-0.211-0.365l-1-0.012l-0.691-1.195h1.381l0.463,0.816h0.422l0.211-0.365
        l-0.252-0.451h0.932L22.498,17.997z"></path>
            </symbol>

            <symbol viewBox="0 0 37 37" id="weatherSymbol82">
                <title>Räntäsadetta</title>
                <g>
                    <path fill="#219ebd" d="M17.706,31.775c0,1.334-1.081,2.414-2.415,2.414c-1.333,0-2.415-1.08-2.415-2.414
            s2.599-5.258,2.599-5.238C15.475,26.566,17.706,30.441,17.706,31.775z"></path>
                    <path fill="#219ebd" d="M24.125,31.775c0,1.334-1.082,2.414-2.416,2.414c-1.332,0-2.414-1.08-2.414-2.414
            s2.598-5.258,2.598-5.238C21.893,26.566,24.125,30.441,24.125,31.775z"></path>
                </g>
                <path fill="#FFFFFF" stroke="#424242" d="M26.104,14.171c-1.088-3.08-3.998-5.289-7.429-5.289c-3.423,0-6.327,2.201-7.421,5.27
            c-2.793,0.094-5.029,2.381-5.029,5.196c0,2.873,2.33,5.203,5.203,5.203c1.141,0,2.191-0.371,3.049-0.994
            c1.217,0.773,2.654,1.227,4.198,1.227c1.466,0,2.833-0.408,4.009-1.109c0.826,0.553,1.82,0.877,2.889,0.877
            c2.873,0,5.203-2.33,5.203-5.203C30.775,16.652,28.729,14.437,26.104,14.171z"></path>
                <g>
                    <path fill-rule="evenodd" clip-rule="evenodd" fill="#219ebd" d="M17.565,18.997l-0.211-0.364h-0.932l0.281-0.502l-0.211-0.365
            h-0.421l-0.493,0.867h-1.38l0.69-1.194l0.957-0.006l0.211-0.364l-0.211-0.365l-0.535,0.004l0.466-0.806l-0.212-0.365h-0.421
            l-0.466,0.807l-0.277-0.48h-0.422l-0.211,0.365l0.489,0.845l-0.69,1.195l-0.689-1.195l0.426-0.729l-0.211-0.365h-0.421
            l-0.216,0.364l-0.466-0.807h-0.422l-0.211,0.365l0.466,0.806l-0.582,0.025l-0.212,0.364l0.212,0.365l1.004-0.023l0.689,1.194
            h-1.38l-0.481-0.78h-0.422l-0.21,0.365l0.271,0.415H9.78l-0.211,0.364l0.211,0.365h0.932l-0.241,0.436l0.209,0.365h0.423
            l0.452-0.801h1.38l-0.689,1.195l-0.859-0.004l-0.211,0.365l0.211,0.365l0.438,0.004l-0.466,0.807l0.211,0.365h0.422l0.466-0.807
            l0.289,0.457h0.42l0.211-0.365l-0.498-0.822l0.689-1.195l0.69,1.195l-0.431,0.766l0.21,0.365h0.422l0.22-0.4l0.466,0.807h0.421
            l0.212-0.365l-0.466-0.807l0.578,0.012l0.211-0.365l-0.211-0.365l-1-0.012l-0.69-1.195h1.38l0.464,0.816h0.421l0.212-0.365
            l-0.253-0.451h0.932L17.565,18.997z"></path>
                    <path fill-rule="evenodd" clip-rule="evenodd" fill="#219ebd" d="M27.432,18.997l-0.211-0.364h-0.932l0.281-0.502l-0.211-0.365
            h-0.422l-0.492,0.867h-1.379l0.689-1.194l0.957-0.006l0.211-0.364l-0.211-0.365l-0.535,0.004l0.465-0.806l-0.211-0.365H25.01
            l-0.465,0.807l-0.277-0.48h-0.422l-0.211,0.365l0.488,0.845l-0.689,1.195l-0.689-1.195l0.426-0.729l-0.211-0.365h-0.422
            l-0.215,0.364l-0.467-0.807h-0.42l-0.213,0.365l0.467,0.806l-0.582,0.025l-0.211,0.364l0.211,0.365l1.004-0.023l0.689,1.194
            h-1.379l-0.482-0.78h-0.422l-0.211,0.365l0.271,0.415h-0.932l-0.211,0.364l0.211,0.365h0.932l-0.242,0.436l0.211,0.365h0.422
            l0.453-0.801h1.379l-0.689,1.195l-0.859-0.004l-0.211,0.365l0.211,0.365l0.438,0.004l-0.467,0.807l0.213,0.365h0.42l0.467-0.807
            l0.289,0.457h0.42l0.211-0.365l-0.498-0.822l0.689-1.195l0.689,1.195l-0.43,0.766l0.211,0.365h0.42l0.221-0.4l0.465,0.807h0.422
            l0.211-0.365l-0.465-0.807l0.578,0.012l0.211-0.365l-0.211-0.365l-1-0.012l-0.689-1.195h1.379l0.463,0.816h0.422l0.211-0.365
            l-0.252-0.451h0.932L27.432,18.997z"></path>
                </g>
            </symbol>

            <symbol viewBox="0 0 37 37" id="weatherSymbol83">
                <title>Voimakasta räntäsadetta</title>
                <g>
                    <path fill="#219ebd" d="M21.063,31.775c0,1.334-1.081,2.414-2.415,2.414c-1.333,0-2.415-1.08-2.415-2.414
                s2.599-5.258,2.599-5.238C18.832,26.566,21.063,30.441,21.063,31.775z"></path>
                    <path fill="#219ebd" d="M27.482,31.775c0,1.334-1.081,2.414-2.415,2.414c-1.333,0-2.414-1.08-2.414-2.414
                s2.597-5.258,2.597-5.238C25.25,26.566,27.482,30.441,27.482,31.775z"></path>
                    <path fill="#219ebd" d="M14.348,31.775c0,1.334-1.08,2.414-2.414,2.414s-2.415-1.08-2.415-2.414s2.598-5.258,2.598-5.238
                C12.116,26.566,14.348,30.441,14.348,31.775z"></path>
                </g>
                <g>
                    <path fill="#FFFFFF" stroke="#424242" d="M26.104,14.171c-1.088-3.08-3.998-5.289-7.43-5.289c-3.424,0-6.328,2.201-7.422,5.27
                c-2.793,0.094-5.029,2.381-5.029,5.196c0,2.873,2.33,5.203,5.203,5.203c1.141,0,2.191-0.371,3.049-0.994
                c1.217,0.773,2.654,1.227,4.199,1.227c1.467,0,2.834-0.408,4.01-1.109c0.826,0.553,1.82,0.877,2.889,0.877
                c2.873,0,5.203-2.33,5.203-5.203C30.776,16.652,28.729,14.437,26.104,14.171z"></path>
                    <g>
                        <path fill-rule="evenodd" clip-rule="evenodd" fill="#219ebd" d="M16.328,19.013l-0.211-0.364h-0.932l0.281-0.502
                l-0.211-0.365h-0.421l-0.493,0.867h-1.38l0.69-1.194l0.957-0.006l0.211-0.364l-0.211-0.365l-0.535,0.004l0.466-0.806
                l-0.212-0.365h-0.421l-0.466,0.807l-0.277-0.48h-0.422l-0.211,0.365l0.489,0.845l-0.69,1.195l-0.689-1.195l0.426-0.729
                l-0.211-0.365h-0.421l-0.216,0.364l-0.466-0.807h-0.422l-0.211,0.365l0.466,0.806l-0.582,0.025l-0.212,0.364l0.212,0.365
                l1.004-0.023l0.689,1.194h-1.38l-0.481-0.78H9.414l-0.21,0.365l0.271,0.415H8.543l-0.211,0.364l0.211,0.365h0.932
                l-0.241,0.436l0.209,0.365h0.423l0.452-0.801h1.38l-0.689,1.195l-0.859-0.004l-0.211,0.365l0.211,0.365l0.438,0.004
                L10.12,22.11l0.211,0.365h0.422l0.466-0.807l0.289,0.457h0.42l0.211-0.365l-0.498-0.822l0.689-1.195l0.69,1.195l-0.431,0.765
                l0.21,0.365h0.422l0.22-0.399l0.466,0.807h0.421l0.212-0.365l-0.466-0.807l0.578,0.012l0.211-0.366l-0.211-0.365l-1-0.011
                l-0.69-1.195h1.38l0.464,0.816h0.421l0.212-0.365l-0.253-0.451h0.932L16.328,19.013z"></path>
                        <path fill-rule="evenodd" clip-rule="evenodd" fill="#219ebd" d="M28.668,19.399l-0.211-0.364h-0.932l0.282-0.502
                l-0.211-0.365h-0.422l-0.492,0.867h-1.38l0.689-1.194l0.958-0.006l0.21-0.364l-0.21-0.365l-0.535,0.004l0.465-0.806
                l-0.211-0.365h-0.422l-0.466,0.807l-0.277-0.48h-0.422l-0.211,0.365l0.489,0.845l-0.69,1.195l-0.689-1.195l0.426-0.729
                l-0.21-0.365h-0.422l-0.216,0.364l-0.466-0.807h-0.421l-0.212,0.365l0.466,0.806l-0.582,0.025l-0.211,0.364l0.211,0.365
                l1.004-0.023l0.69,1.194h-1.38l-0.482-0.78h-0.422l-0.21,0.365l0.271,0.415h-0.932l-0.211,0.364l0.211,0.365h0.932
                L21.573,20.2l0.21,0.365h0.422l0.453-0.801h1.38l-0.69,1.195l-0.859-0.004l-0.21,0.365l0.21,0.365l0.438,0.004l-0.466,0.807
                l0.212,0.365h0.421l0.466-0.807l0.289,0.457h0.42l0.212-0.365l-0.499-0.822l0.689-1.195l0.69,1.195L24.93,22.09l0.211,0.365
                h0.421l0.22-0.399l0.466,0.807h0.422l0.211-0.365l-0.465-0.807l0.578,0.012l0.211-0.366l-0.211-0.365l-1.001-0.011
                l-0.689-1.195h1.38l0.463,0.816h0.422l0.211-0.365l-0.253-0.451h0.932L28.668,19.399z"></path>
                        <path fill-rule="evenodd" clip-rule="evenodd" fill="#219ebd" d="M22.763,14.265L22.552,13.9H21.62l0.282-0.502l-0.211-0.365
                H21.27L20.777,13.9h-1.38l0.689-1.195l0.958-0.005l0.21-0.364l-0.21-0.365l-0.535,0.004l0.465-0.807l-0.211-0.365h-0.422
                l-0.466,0.807l-0.277-0.48h-0.422l-0.211,0.365l0.489,0.846l-0.69,1.195l-0.689-1.195l0.426-0.729l-0.21-0.365h-0.422
                l-0.216,0.363l-0.466-0.807h-0.421l-0.212,0.365l0.466,0.807L16.438,12l-0.211,0.364l0.211,0.365l1.004-0.024l0.69,1.195
                h-1.38l-0.482-0.78h-0.422l-0.21,0.364l0.271,0.416h-0.932l-0.211,0.364l0.211,0.365h0.932l-0.241,0.436l0.21,0.365H16.3
                l0.453-0.801h1.38l-0.69,1.195l-0.859-0.004l-0.21,0.364l0.21,0.366l0.438,0.003l-0.466,0.808l0.212,0.365h0.421l0.466-0.808
                l0.289,0.458h0.42l0.212-0.365l-0.499-0.822l0.689-1.195l0.69,1.195l-0.431,0.765l0.211,0.365h0.421l0.22-0.4l0.466,0.808
                h0.422l0.211-0.365l-0.465-0.808l0.578,0.012l0.211-0.365l-0.211-0.365l-1.001-0.011l-0.689-1.195h1.38l0.463,0.815h0.422
                l0.211-0.365l-0.253-0.45h0.932L22.763,14.265z"></path>
                    </g>
                </g>
            </symbol>
            <symbol viewBox="0 0 37 37" id="weatherSymbol91">
                <title>Utua</title>
                <path d="M30.479,15.267c0,0.576-0.468,1.044-1.044,1.044H7.239c-0.577,0-1.045-0.468-1.045-1.044l0,0
        c0-0.576,0.468-1.044,1.045-1.044h22.195C30.011,14.223,30.479,14.69,30.479,15.267L30.479,15.267z"></path>
                <path d="M30.479,19.277c0,0.576-0.468,1.044-1.044,1.044H7.239c-0.577,0-1.045-0.468-1.045-1.044l0,0
        c0-0.576,0.468-1.044,1.045-1.044h22.195C30.011,18.233,30.479,18.701,30.479,19.277L30.479,19.277z"></path>
                <path d="M30.479,23.288c0,0.576-0.468,1.044-1.044,1.044H7.239c-0.577,0-1.045-0.468-1.045-1.044l0,0
        c0-0.576,0.468-1.044,1.045-1.044h22.195C30.011,22.244,30.479,22.712,30.479,23.288L30.479,23.288z"></path>
                </g>

                <symbol viewBox="0 0 37 37" id="weatherSymbol92">
                    <title>Sumua</title>
                    <g>
                        <path d="M30.479,15.267c0,0.576-0.468,1.044-1.044,1.044H7.239c-0.577,0-1.045-0.468-1.045-1.044l0,0
            c0-0.576,0.468-1.044,1.045-1.044h22.195C30.011,14.223,30.479,14.69,30.479,15.267L30.479,15.267z"></path>
                        <path d="M30.479,19.277c0,0.576-0.468,1.044-1.044,1.044H7.239c-0.577,0-1.045-0.468-1.045-1.044l0,0
            c0-0.576,0.468-1.044,1.045-1.044h22.195C30.011,18.233,30.479,18.701,30.479,19.277L30.479,19.277z"></path>
                        <path d="M30.479,23.288c0,0.576-0.468,1.044-1.044,1.044H7.239c-0.577,0-1.045-0.468-1.045-1.044l0,0
            c0-0.576,0.468-1.044,1.045-1.044h22.195C30.011,22.244,30.479,22.712,30.479,23.288L30.479,23.288z"></path>
                    </g>
                </symbol>
    </defs>
</svg>